<svg xmlns="http://www.w3.org/2000/svg" viewBox="0 0 420.06 418.9"><defs><style>.cls-1{fill:#ebebeb;}.cls-2{fill:#ffc727;}.cls-3{fill:#ffb327;}.cls-4{opacity:0.3;}.cls-5{fill:#cc8041;}.cls-15,.cls-6{fill:#263238;}.cls-7{fill:#4162a3;}.cls-8{fill:none;}.cls-9{fill:#fff;}.cls-10{fill:#dbdbdb;}.cls-11{fill:#f7a9a0;}.cls-12,.cls-15{opacity:0.1;}.cls-13{fill:#ff9abb;}.cls-14{fill:#f8f8f8;}.cls-16{fill:#455a64;}</style></defs><g id="Layer_2" data-name="Layer 2"><g id="Bag"><path class="cls-1" d="M218.14,323.94c-7.69.15-18.89.45-26.48.45h-.44v-.45l-.05-11.19v-.5h.5c7.93,0,18.94.08,26.76.23,0,3.4-.22,8-.28,11.46Zm0,0c-.1-3.27-.2-8-.27-11.19l.27.28c-7.66.14-18.71.2-26.48.22l.5-.5,0,11.19-.45-.44c7.49,0,18.89.29,26.48.44Z"/><path class="cls-1" d="M203.37,338.05c-7.69.15-18.89.45-26.48.45h-.44v-.45l-.05-11.19v-.5h.5c7.92,0,18.94.08,26.75.23,0,3.4-.21,8-.27,11.46Zm0,0c-.1-3.27-.2-8-.27-11.19l.27.28c-7.66.14-18.71.2-26.48.22l.5-.5-.06,11.19-.44-.44c7.49,0,18.89.29,26.48.44Z"/><path class="cls-1" d="M188.66,323.94c-7.69.15-18.89.45-26.49.45h-.44v-.45l0-11.19v-.5h.5c7.93,0,19,.08,26.76.23,0,3.4-.21,8-.27,11.46Zm0,0c-.1-3.27-.21-8-.28-11.19l.28.28c-7.66.14-18.71.2-26.49.22l.5-.5,0,11.19-.45-.44c7.49,0,18.9.29,26.49.44Z"/><path class="cls-2" d="M75.86,0c-42,0-42.06,59.72,0,59.72S117.93,0,75.86,0Z"/><path class="cls-3" d="M101.4,35.46C99.16,45.73,90.64,54.64,75.86,54.64,41,54.64,41,5.08,75.86,5.08h.68c-32.8.6-32.64,47.54.65,47.54C90.76,52.63,98.85,44.77,101.4,35.46Z"/><path class="cls-3" d="M76.11,11.61a1.06,1.06,0,0,1,1.09,1v1.66a15.65,15.65,0,0,1,8.09,2.91c.41.29.64.54.64,1a1.13,1.13,0,0,1-1.19,1,1.14,1.14,0,0,1-.81-.29,13.55,13.55,0,0,0-6.82-2.71V27.82c6.91,1.33,9.82,3.7,9.82,7.78,0,4.4-4.05,7.52-9.73,7.69v3.24a1.09,1.09,0,0,1-2.18,0V43.25a17.82,17.82,0,0,1-10.22-4,1,1,0,0,1-.5-.87,1.14,1.14,0,0,1,1.14-1,1.21,1.21,0,0,1,.81.29,15.33,15.33,0,0,0,8.86,3.79V29.53c-6.81-1.37-9.63-3.66-9.63-7.82s4-7.4,9.54-7.52V12.61A1.06,1.06,0,0,1,76.11,11.61Zm-1,15.8V16.06c-4.4.08-7.31,2.49-7.31,5.49C67.8,24.37,69.25,26.12,75.11,27.41Zm2,2.53V41.42c4.55-.09,7.5-2.5,7.5-5.66C84.61,32.9,83,31.15,77.11,29.94Z"/><path class="cls-3" d="M39.22,200.86c-50.57,9.08-37.21,84,13.44,74.91S89.88,191.77,39.22,200.86Z"/><path class="cls-2" d="M42.29,198.79c-50.09,9-36.21,86.85,14,77.85S92.46,189.79,42.29,198.79Z"/><path class="cls-3" d="M81.26,239.23c-.26,13.34-8,26.28-25,29.32-40.06,7.19-51.15-55-11.15-62.17l.79-.13c-37.51,7.51-26.76,66.36,11.43,59.5C72.92,263,80.43,251.44,81.26,239.23Z"/><path class="cls-3" d="M46.87,214.52a1.29,1.29,0,0,1,1.48,1l.37,2.09a17.21,17.21,0,0,1,9.94,2c.53.28.85.55.94,1.07a1.36,1.36,0,0,1-1.12,1.55,1.31,1.31,0,0,1-1-.2,15.09,15.09,0,0,0-8.43-2l2.62,14.6c8.22.25,12.09,2.62,13,7.73,1,5.53-3,10.27-9.43,11.65L56,258.1a1.27,1.27,0,1,1-2.5.45l-.74-4.12a20,20,0,0,1-12.64-3,1.33,1.33,0,0,1,.3-2.53,1.33,1.33,0,0,1,1,.19,17.07,17.07,0,0,0,11,2.92L49.76,237.2c-8.13-.31-11.88-2.6-12.82-7.82s2.93-10.1,9.26-11.4l-.36-2A1.29,1.29,0,0,1,46.87,214.52Zm2.41,20-2.55-14.23c-5,1-7.84,4.63-7.17,8.39C40.2,232.24,42.26,234.14,49.28,234.54Zm2.86,2.77,2.59,14.4c5.19-1,8-4.68,7.33-8.64C61.41,239.47,59.19,237.61,52.14,237.31Z"/><path class="cls-3" d="M376.6,164c-37.82,6.78-27.83,62.8,10,56S414.47,157.17,376.6,164Z"/><path class="cls-2" d="M380.15,163.33c-36,6.47-26,62.48,10.05,56S416.24,156.85,380.15,163.33Z"/><path class="cls-3" d="M408,192.65c-.2,10-6,19.65-18.69,21.93-30,5.37-38.25-41.12-8.34-46.49l.58-.09c-28,5.61-20,49.61,8.56,44.48C401.79,210.39,407.41,201.78,408,192.65Z"/><path class="cls-3" d="M387.34,174.16a1,1,0,0,1,.83,1.05l-.18,1.58a13,13,0,0,1,6.68,3.57,1.1,1.1,0,0,1,.44,1,1,1,0,0,1-1.14.87,1,1,0,0,1-.68-.36,11.24,11.24,0,0,0-5.6-3.25l-1.29,11c5.83,2,8.08,4.5,7.63,8.36-.49,4.17-4.34,6.71-9.27,6.29l-.36,3.06a1,1,0,1,1-1.89-.22l.36-3.11a14.84,14.84,0,0,1-8.4-4.85,1,1,0,0,1,.76-1.75,1,1,0,0,1,.68.36,12.73,12.73,0,0,0,7.25,4.48L384.48,191c-5.75-2-7.93-4.44-7.47-8.37s4.28-6.6,9.1-6.15l.17-1.5A1,1,0,0,1,387.34,174.16ZM384.72,189,386,178.27c-3.83-.37-6.61,1.61-7,4.44C378.72,185.39,379.78,187.19,384.72,189Zm1.44,2.6-1.27,10.86c3.94.38,6.77-1.6,7.12-4.59C392.33,195.16,391.14,193.35,386.16,191.61Z"/><ellipse class="cls-4" cx="209.82" cy="396.76" rx="198.33" ry="22.14"/><path class="cls-5" d="M368.21,235.44a43,43,0,0,1-.84,16.52,45.66,45.66,0,0,1-2.53,7.3c-1.31,3-2.69,6-2.35,9.28.31.21-.78.18-.82-.15-8.83-5-20.16-5.95-27-14.17-3.23-3.9-4.85-8.84-5.62-13.77-.84-5.38-1.07-11.33.32-16.63,1.17-4.49,3.79-8.81,8-11s10-2.08,14.62-.66C361.9,215.23,366.81,225.89,368.21,235.44Z"/><path class="cls-6" d="M372.74,300.85q-1.8-6-3.64-12.05c-2.43-7.85-5-15.68-7.74-23.41q-2.5-6.94-5.29-13.76a82.63,82.63,0,0,1,1.06-8.54c.73-3.43,1.81-6.74,2.81-10.09.06-.2-.28-.31-.36-.12-2,4.62-4.57,10.53-4.64,16q-3.22-7.71-6.94-15.2a64.69,64.69,0,0,1,.39-12.66c0-.19-.27-.25-.3-.06a45.38,45.38,0,0,0-.87,11.18c-1.9-3.75-3.9-7.46-6-11.1-.19-.33-.64,0-.47.33,3.32,6.39,6.4,12.92,9.29,19.53a42.61,42.61,0,0,0-13.86-8c-.22-.08-.38.24-.16.33a50.35,50.35,0,0,1,15,9.93q3.11,7.26,5.94,14.64c-5.53-5.42-13.1-9-20.42-10.9-.25-.06-.31.32-.07.39,8.47,2.55,15.05,7.36,21.49,13.12.75,2,1.48,4,2.2,6q4.1,11.37,7.8,22.86,1.77,5.5,3.5,11c1.24,4,2.21,8.14,3.81,12,.16.37.81.28.73-.15A113.12,113.12,0,0,0,372.74,300.85Z"/><path class="cls-6" d="M358.09,227.7a22,22,0,0,0-3.19,7.94c0,.07.1.11.13,0a68.4,68.4,0,0,1,3.45-7.78C358.61,227.64,358.24,227.48,358.09,227.7Z"/><path class="cls-6" d="M342.32,246.12a23,23,0,0,0-7.93-2.67c-.07,0-.11.09,0,.12,1.28.53,2.61.9,3.91,1.4s2.55,1.1,3.86,1.55A.22.22,0,0,0,342.32,246.12Z"/><path class="cls-6" d="M337.88,224a15.67,15.67,0,0,0-2.55-1.58.14.14,0,0,0-.15.23,16.2,16.2,0,0,0,2.52,1.63C337.86,224.35,338,224.07,337.88,224Z"/><path class="cls-5" d="M398,265.45c-6.37,1.89-12.76,3.64-19.13,5.5-.55.17-11.31-20.45-7.42-31.07,3.59-9.83,11.82-17.18,21.63-20.52,4.55-1.55,10.13-2.84,14.93-1.78,4.27.94,7.29,4.43,8.67,8.45,1.89,5.45,1.26,12,.23,17.53a30.54,30.54,0,0,1-6.26,14.31C407.27,261.89,403,264,398,265.45Z"/><path class="cls-6" d="M407.22,245.86a85.21,85.21,0,0,1-12.47,4.91,52.27,52.27,0,0,0-8.33,3c2.68-6,5.63-11.86,8.76-17.68,4.11-1.19,8.44-3,11.54-6a.18.18,0,0,0-.23-.27c-3.39,2.4-7.13,3.84-10.89,5.46.85-1.57,1.7-3.13,2.58-4.69.24-.43-.36-.86-.65-.44a131.93,131.93,0,0,0-9,15.19,69.61,69.61,0,0,1-.66-13.92.09.09,0,1,0-.18,0,46.43,46.43,0,0,0,.15,15.29c-2.23,4.45-4.26,9-6.09,13.64-.72-2.78-1.67-5.51-2.3-8.31a38.26,38.26,0,0,1-.91-12.25c0-.12-.17-.13-.19,0A43.33,43.33,0,0,0,381,262.32c-1.06,2.78-2.07,5.58-3,8.37a167.14,167.14,0,0,0-8.45,44.16.27.27,0,0,0,.54,0,219.22,219.22,0,0,1,9.48-43.64c1.85-5.55,4-10.93,6.3-16.22,3.76-1.11,7.51-2.62,11.2-3.9a35,35,0,0,0,10.32-5.06A.13.13,0,0,0,407.22,245.86Z"/><path class="cls-6" d="M413.16,239.87c-3.89,1.38-7.58,3.32-11.47,4.73-.18.06-.08.35.11.31,4.11-.85,8.19-2.12,11.51-4.82C413.43,240,413.29,239.82,413.16,239.87Z"/><path class="cls-6" d="M381.38,231.47c0-.2-.26-.32-.32-.11-1.07,3.59-1.81,7.39-.77,11.06a.14.14,0,0,0,.28,0C380.76,238.71,380.55,235.11,381.38,231.47Z"/><path class="cls-6" d="M397.46,223.18a9.52,9.52,0,0,0-1.69,6.11c0,.13.22.21.26.05.48-2.05,1.27-3.92,1.9-5.92A.27.27,0,0,0,397.46,223.18Z"/><path class="cls-5" d="M322.3,274.54c1.86,5.93,6.3,14.11,13.32,14.18,4.55,0,9.13-.5,13.69-.56,4.89-.08,9.79-.07,14.66.22.4,0-.58-14.63-12.33-21.76-3.29-2-7.31-2.63-11-3.44a50.76,50.76,0,0,0-13.05-1.36c-2.7.11-4.94.68-5.9,3.44S321.4,271.73,322.3,274.54Z"/><path class="cls-6" d="M327.35,267.13c2.85.74,5.73,1.58,8.6,2.49a32.29,32.29,0,0,0-2.37-2.31c-1.23-1-2.58-1.84-3.9-2.73-.11-.08-.05-.29.09-.23a16.07,16.07,0,0,1,6.93,5.5c3.57,1.16,7.1,2.43,10.51,3.83a39.33,39.33,0,0,1,6.72,3.54A27.37,27.37,0,0,0,351.5,273c-1.56-2-3.67-3.14-5.71-4.58a.18.18,0,0,1,.18-.31,16.71,16.71,0,0,1,9.16,9.93,38.66,38.66,0,0,1,6.66,6.05c7.77,8.82,13.89,20.56,13.91,32.54,0,.29-.46.37-.51.07a66.47,66.47,0,0,0-14.82-31.82c-.55-.65-1.12-1.27-1.7-1.86a53,53,0,0,0-6.42-.48c-2.5,0-5,.37-7.47.57-4.1.33-8.63.38-12.33-1.68-.16-.09-.05-.38.13-.31,8.24,3,16.89-.8,25.15,1a38.64,38.64,0,0,0-12.19-7.86l-.75-.3c-5.29.64-10.88,2-16,.3a.13.13,0,0,1,.07-.25c5,1.25,9.75-.32,14.66-.57-5.35-2.08-10.8-3.74-16.17-5.8C326.87,267.42,326.86,267,327.35,267.13Z"/><path class="cls-6" d="M325,272.34a70.87,70.87,0,0,0,7.7.59s.07.09,0,.1a16,16,0,0,1-7.77-.49C324.83,272.5,324.89,272.32,325,272.34Z"/><path class="cls-6" d="M342.41,267.26a12.8,12.8,0,0,1,3.81,2.65c.13.12-.05.36-.2.25-.64-.47-1.31-.91-2-1.34a20.1,20.1,0,0,1-1.86-1.18C342,267.5,342.2,267.19,342.41,267.26Z"/><path class="cls-5" d="M383.87,286.33c-.09.19.19.38.3.17h0a.29.29,0,0,0,.18.12,119,119,0,0,0,14.35,2.5c3.88.35,8.36.56,11.75-1.69,4.61-3.05,7.64-11.22,5.15-16.41-2.95-6.15-11.82-2.81-16.28-.62A32.64,32.64,0,0,0,383.87,286.33Z"/><path class="cls-6" d="M380.42,289.18a45.77,45.77,0,0,1,8.57-6.52,29.34,29.34,0,0,1,8.68-8.86c.17-.11.32.15.16.27a39.51,39.51,0,0,0-7.32,7.7,82.11,82.11,0,0,1,10.75-4.89A14.33,14.33,0,0,1,407,271.1c.05,0,.11,0,.06.08a23.91,23.91,0,0,0-5.21,5.47c2.18-.81,4.39-1.57,6.59-2.3.2-.07.27.23.09.31-3.93,1.53-7.94,3.14-11.83,5a45.56,45.56,0,0,0,14.32,0c.13,0,.19.16.06.2a28.19,28.19,0,0,1-15.19.23,73.44,73.44,0,0,0-7.21,4,18.07,18.07,0,0,1,5.83.48,44,44,0,0,0,10.23,1.16c.13,0,.16.21,0,.23-5.94,1-11.55-1.68-17.43-1a45.21,45.21,0,0,0-6.13,5,46,46,0,0,0-8.94,12.61c-2.48,5-3.82,10.39-5.82,15.59a.19.19,0,0,1-.37-.1C367.83,307.82,372.94,296.5,380.42,289.18Z"/><path class="cls-6" d="M398.33,275.09a6.56,6.56,0,0,1,1.52-1.84,5.86,5.86,0,0,1,1.75-1.31c.06,0,.09.05.06.09-.49.56-1.17,1-1.69,1.49s-1,1.16-1.5,1.68A.09.09,0,0,1,398.33,275.09Z"/><path class="cls-6" d="M408.12,278.28c.88-.22,1.81-.21,2.71-.39a27.1,27.1,0,0,0,2.62-.78c.12,0,.18.13.08.19a8.69,8.69,0,0,1-5.41,1.26A.15.15,0,0,1,408.12,278.28Z"/><polygon class="cls-7" points="355.96 305.44 356.74 314.29 359.38 344.17 382.79 344.17 386.09 314.29 387.06 305.44 355.96 305.44"/><polygon class="cls-6" points="355.96 305.44 356.74 314.29 386.09 314.29 387.06 305.44 355.96 305.44"/><rect class="cls-7" x="353.64" y="303.02" width="35.74" height="7.18" transform="translate(743.03 613.23) rotate(180)"/><path class="cls-6" d="M0,344c134.56-.61,285.5-.62,420.06,0-134.56.62-285.5.61-420.06,0Z"/><path class="cls-6" d="M227.07,34H65.42A16.49,16.49,0,0,0,49.07,50.61V383.37A16.51,16.51,0,0,0,65.42,400H227.07a16.53,16.53,0,0,0,16.37-16.66V50.61A16.51,16.51,0,0,0,227.07,34Zm6.14,339.12c0,8.76-6.56,15.85-14.65,15.85H74c-8.11,0-14.67-7.09-14.67-15.85V63.22c0-17.84,6.56-18.71,14.67-18.71h29c1.68,0,3.06,1.91,3.06,4.28v1c0,5.55,3,5.57,6.77,5.57h67c3.77,0,6.79,0,6.79-5.57v-1c0-2.38,1.35-4.29,3.07-4.29h29c8.09,0,14.65,2.37,14.65,18.71Z"/><line class="cls-8" x1="59.28" y1="353.44" x2="58.74" y2="353.44"/><path class="cls-9" d="M233.21,63.22V373.08c0,8.76-6.56,15.85-14.65,15.85H74c-8.11,0-14.67-7.09-14.67-15.85V63.22c0-17.84,6.56-18.71,14.67-18.71h29c1.68,0,3.06,1.91,3.06,4.28v1c0,5.55,3,5.57,6.77,5.57h67c3.77,0,6.79,0,6.79-5.57v-1c0-2.38,1.35-4.29,3.07-4.29h29C226.65,44.51,233.21,46.88,233.21,63.22Z"/><path class="cls-5" d="M233.21,63.22v34.9H59.28V63.22c0-17.84,6.56-18.71,14.67-18.71h29c1.68,0,3.06,1.91,3.06,4.28v1c0,5.55,3,5.57,6.77,5.57h67c3.77,0,6.79,0,6.79-5.57v-1c0-2.38,1.35-4.29,3.07-4.29h29C226.65,44.51,233.21,46.88,233.21,63.22Z"/><g id="u5Zjqx"><path class="cls-9" d="M97.92,51.47c-.1.09-.19.19-.28.28a1.21,1.21,0,0,0-.16.16,3.81,3.81,0,0,0-5.4,0l-.15-.16-.28-.27h0l.35-.32a5,5,0,0,1,.82-.52,4.16,4.16,0,0,1,1.08-.36,5.17,5.17,0,0,1,.55-.07h.47c.12,0,.25,0,.37,0a4.39,4.39,0,0,1,1,.23,4.56,4.56,0,0,1,.67.32,4.09,4.09,0,0,1,.64.45l.3.26Z"/><path class="cls-9" d="M93,52.79l-.44-.44a3,3,0,0,1,1.8-.9,3.12,3.12,0,0,1,2.7.89l-.44.44a2.57,2.57,0,0,0-3.62,0Z"/><path class="cls-9" d="M96.15,53.23l-.44.44a1.3,1.3,0,0,0-1.86,0l-.44-.44A1.93,1.93,0,0,1,96.15,53.23Z"/><path class="cls-9" d="M95.18,54.07a.4.4,0,1,1-.4-.4A.4.4,0,0,1,95.18,54.07Z"/></g><path class="cls-9" d="M70.62,52.32a1.16,1.16,0,1,1,1.16,1.15A1.16,1.16,0,0,1,70.62,52.32Z"/><path class="cls-9" d="M74.25,52.32a1.16,1.16,0,1,1,1.16,1.15A1.16,1.16,0,0,1,74.25,52.32Z"/><path class="cls-9" d="M77.89,52.32A1.15,1.15,0,1,1,79,53.47,1.15,1.15,0,0,1,77.89,52.32Z"/><path class="cls-9" d="M81.52,52.32a1.15,1.15,0,1,1,1.15,1.15A1.15,1.15,0,0,1,81.52,52.32Z"/><path class="cls-9" d="M85.15,52.32a1.15,1.15,0,1,1,1.15,1.15A1.15,1.15,0,0,1,85.15,52.32Z"/><path class="cls-9" d="M220.16,54.83h-9.38V50.49h9.38Zm-8.9-.48h8.43V51h-8.43Z"/><rect class="cls-9" x="211.56" y="51.22" width="6.05" height="2.87"/><rect class="cls-9" x="220.17" y="51.5" width="0.83" height="2.33"/><polygon class="cls-9" points="75.14 88.32 70 83.5 75.14 78.69 75.93 79.54 71.7 83.5 75.93 87.47 75.14 88.32"/><polygon class="cls-9" points="217.37 78.69 222.51 83.5 217.37 88.32 216.57 87.47 220.81 83.5 216.57 79.54 217.37 78.69"/><path class="cls-9" d="M122.87,83.5a2.9,2.9,0,0,1,2.9-2.84,3,3,0,0,1,1.82.61.48.48,0,0,1,.08.64A.45.45,0,0,1,127,82a2,2,0,0,0-1.27-.43,2.11,2.11,0,0,0-1.43.57,1.94,1.94,0,0,0,0,2.75,2.11,2.11,0,0,0,1.43.57A2,2,0,0,0,127,85a.48.48,0,0,1,.63.09.47.47,0,0,1-.08.63,2.92,2.92,0,0,1-1.82.62A2.89,2.89,0,0,1,122.87,83.5Z"/><path class="cls-9" d="M129.21,85.91V81.25a.43.43,0,0,1,.43-.43.44.44,0,0,1,.45.43v1.9h2v-1.9a.43.43,0,0,1,.44-.43.44.44,0,0,1,.44.43v4.66a.44.44,0,0,1-.44.44.43.43,0,0,1-.44-.44V84h-2v1.89a.44.44,0,0,1-.45.44A.43.43,0,0,1,129.21,85.91Z"/><path class="cls-9" d="M134.81,85.91V81.25a.43.43,0,0,1,.44-.43h2.58a.44.44,0,1,1,0,.87h-2.14v1.45h1.84a.45.45,0,0,1,.44.44.44.44,0,0,1-.44.44h-1.84v1.45h2.14a.44.44,0,0,1,0,.88h-2.58A.44.44,0,0,1,134.81,85.91Z"/><path class="cls-9" d="M139.26,83.5a2.9,2.9,0,0,1,2.9-2.84,3,3,0,0,1,1.83.61.47.47,0,0,1,.07.64.45.45,0,0,1-.63.08,2,2,0,0,0-1.27-.43,2.06,2.06,0,0,0-1.42.57,1.92,1.92,0,0,0,0,2.75,2.06,2.06,0,0,0,1.42.57,1.94,1.94,0,0,0,1.27-.44.48.48,0,0,1,.63.09.45.45,0,0,1-.07.63,3,3,0,0,1-1.83.62A2.89,2.89,0,0,1,139.26,83.5Z"/><path class="cls-9" d="M145.6,85.91V81.29a.44.44,0,0,1,.87,0v2.27L149,81a.44.44,0,0,1,.62,0,.46.46,0,0,1,0,.62l-1.74,1.73,1.75,2.3a.42.42,0,0,1-.06.61.4.4,0,0,1-.28.1.45.45,0,0,1-.32-.16L147.29,84l-.82.84v1.12a.44.44,0,1,1-.87,0Z"/><path class="cls-9" d="M155.22,81.5a2.93,2.93,0,0,1,.8,2,2.87,2.87,0,0,1-.8,2,2.56,2.56,0,0,1-1.89.85,2.64,2.64,0,0,1-1.93-.85,2.86,2.86,0,0,1-.79-2,2.92,2.92,0,0,1,.79-2,2.64,2.64,0,0,1,1.93-.84A2.55,2.55,0,0,1,155.22,81.5Zm-.1,2a2,2,0,0,0-.54-1.38,1.71,1.71,0,0,0-1.25-.56,1.76,1.76,0,0,0-1.28.56,2,2,0,0,0-.53,1.38,2,2,0,0,0,.53,1.38,1.77,1.77,0,0,0,1.28.57,1.72,1.72,0,0,0,1.25-.57A2,2,0,0,0,155.12,83.5Z"/><path class="cls-9" d="M159.52,86.35a2.29,2.29,0,0,1-2.29-2.28V81.25a.43.43,0,0,1,.44-.43.44.44,0,0,1,.44.43v2.82a1.41,1.41,0,0,0,2.81,0V81.25a.44.44,0,0,1,.45-.43.43.43,0,0,1,.43.43v2.82A2.29,2.29,0,0,1,159.52,86.35Z"/><path class="cls-9" d="M166.81,81.69h-1.26v4.22a.43.43,0,0,1-.43.44.44.44,0,0,1-.44-.44V81.69h-1.25a.44.44,0,0,1-.43-.44.43.43,0,0,1,.43-.43h3.38a.43.43,0,0,1,.43.43A.44.44,0,0,1,166.81,81.69Z"/><path class="cls-9" d="M155.39,48.45H137.11A1.13,1.13,0,0,1,136,47.33h0a1.13,1.13,0,0,1,1.13-1.13h18.28a1.12,1.12,0,0,1,1.12,1.13h0A1.12,1.12,0,0,1,155.39,48.45Z"/><path class="cls-6" d="M139.26,292H138.2v3.58a.36.36,0,0,1-.37.36.37.37,0,0,1-.37-.36V292H136.4a.37.37,0,0,1-.36-.38.36.36,0,0,1,.36-.36h2.86a.37.37,0,0,1,.37.36A.38.38,0,0,1,139.26,292Z"/><path class="cls-6" d="M144.06,291.79a2.45,2.45,0,0,1,0,3.39,2.19,2.19,0,0,1-1.6.71,2.28,2.28,0,0,1-1.64-.71,2.51,2.51,0,0,1,0-3.39,2.25,2.25,0,0,1,1.64-.72A2.16,2.16,0,0,1,144.06,291.79Zm-.08,1.69a1.73,1.73,0,0,0-.46-1.17,1.45,1.45,0,0,0-2.14,0,1.73,1.73,0,0,0-.46,1.17,1.69,1.69,0,0,0,.46,1.17,1.43,1.43,0,0,0,2.14,0A1.69,1.69,0,0,0,144,293.48Z"/><path class="cls-6" d="M148.55,292h-1.06v3.58a.36.36,0,0,1-.37.36.37.37,0,0,1-.37-.36V292h-1.06a.37.37,0,0,1-.36-.38.36.36,0,0,1,.36-.36h2.86a.37.37,0,0,1,.37.36A.38.38,0,0,1,148.55,292Z"/><path class="cls-6" d="M151.78,294.79h-1.63l-.33.87a.36.36,0,0,1-.34.23.27.27,0,0,1-.13,0,.37.37,0,0,1-.22-.48l1.48-3.94a.39.39,0,0,1,.35-.24.38.38,0,0,1,.36.24l1.48,3.94a.38.38,0,0,1-.22.48.27.27,0,0,1-.13,0,.35.35,0,0,1-.34-.23Zm-.27-.74-.55-1.44-.54,1.44Z"/><path class="cls-6" d="M153.71,295.53v-4a.36.36,0,0,1,.37-.36.37.37,0,0,1,.38.36v3.58h1.81a.38.38,0,0,1,.37.38.37.37,0,0,1-.37.36h-2.19A.36.36,0,0,1,153.71,295.53Z"/><path class="cls-6" d="M124.52,300.91a.62.62,0,0,1,.62.62v.31a5.18,5.18,0,0,1,2.22.79.78.78,0,0,1,.43.69.79.79,0,0,1-.8.79.86.86,0,0,1-.43-.13,5.07,5.07,0,0,0-1.48-.63v2.75c2.18.55,3.11,1.42,3.11,3s-1.23,2.62-3,2.79v.86a.62.62,0,0,1-.62.62.63.63,0,0,1-.63-.62v-.89A6.09,6.09,0,0,1,121,310.7a.79.79,0,0,1,.4-1.47.76.76,0,0,1,.47.16,5.32,5.32,0,0,0,2.13,1v-2.83c-2.1-.54-3.07-1.33-3.07-2.95s1.22-2.6,3-2.74v-.3A.63.63,0,0,1,124.52,300.91ZM124,305.8v-2.54c-.92.09-1.38.58-1.38,1.21S122.84,305.44,124,305.8Zm1.13,2v2.61c.92-.1,1.42-.56,1.42-1.24S126.18,308.14,125.08,307.79Z"/><path class="cls-6" d="M132.67,302.6v8.46a.8.8,0,0,1-.81.79.77.77,0,0,1-.78-.79V304l-.58.33a.79.79,0,0,1-.82-1.36l1.77-1.05s0,0,.06,0,0,0,.07,0l.08,0h.06a.18.18,0,0,1,.1,0H132s0,0,.06,0a.11.11,0,0,1,.08,0h.06a.14.14,0,0,0,.09,0l0,0,.06,0s0,0,.06.06l0,.05.06.06v0l0,0s0,.05,0,.07,0,.06,0,.08,0,.05,0,.07a.12.12,0,0,0,0,.1Z"/><path class="cls-6" d="M141,311.06a.77.77,0,0,1-.79.79h-5.1a.74.74,0,0,1-.59-.26.79.79,0,0,1,0-1.11l4.25-3.85a1.81,1.81,0,0,0,.6-1.37,1.89,1.89,0,0,0-.47-1.25,1.82,1.82,0,0,0-1.38-.6,1.87,1.87,0,0,0-1.25.47l-.44.4a.78.78,0,0,1-1.12-.06.79.79,0,0,1,.06-1.12l.44-.4a3.45,3.45,0,0,1,5.75,2.56,3.48,3.48,0,0,1-1.13,2.55l-2.71,2.45h3.05A.79.79,0,0,1,141,311.06Z"/><path class="cls-6" d="M143,305.28a3.48,3.48,0,0,1,6.94-.35v0c0,.28,0,.55,0,.82a8.34,8.34,0,0,1-.5,2.94,5,5,0,0,1-1.85,2.45,4.06,4.06,0,0,1-2.15.68.81.81,0,0,1-.84-.76.83.83,0,0,1,.78-.83,2.72,2.72,0,0,0,1.35-.41,2.83,2.83,0,0,0,.9-1,3.2,3.2,0,0,0,.19-.37,3.51,3.51,0,0,1-1.38.29A3.48,3.48,0,0,1,143,305.28Zm1.59,0a1.89,1.89,0,1,0,3.77,0,1.89,1.89,0,0,0-3.77,0Z"/><path class="cls-6" d="M153.32,309.82a1.07,1.07,0,1,1,0,2.13,1.07,1.07,0,0,1,0-2.13Z"/><path class="cls-6" d="M155.33,305.28a3.48,3.48,0,0,1,6.94-.35v0c0,.28,0,.55,0,.82a8.34,8.34,0,0,1-.5,2.94,5,5,0,0,1-1.85,2.45,4,4,0,0,1-2.15.68.81.81,0,0,1-.83-.76.82.82,0,0,1,.77-.83,2.66,2.66,0,0,0,1.35-.41,2.83,2.83,0,0,0,.9-1,2.15,2.15,0,0,0,.19-.37,3.51,3.51,0,0,1-1.38.29A3.48,3.48,0,0,1,155.33,305.28Zm1.59,0a1.89,1.89,0,1,0,3.77,0,1.89,1.89,0,0,0-3.77,0Z"/><path class="cls-6" d="M164.54,305.28a3.48,3.48,0,0,1,6.94-.35v0c0,.28,0,.55,0,.82a8.34,8.34,0,0,1-.5,2.94,5,5,0,0,1-1.85,2.45,4,4,0,0,1-2.15.68.8.8,0,0,1-.83-.76.82.82,0,0,1,.77-.83,2.66,2.66,0,0,0,1.35-.41,2.83,2.83,0,0,0,.9-1,3.2,3.2,0,0,0,.19-.37,3.51,3.51,0,0,1-1.38.29A3.48,3.48,0,0,1,164.54,305.28Zm1.59,0a1.89,1.89,0,1,0,3.77,0,1.89,1.89,0,0,0-3.77,0Z"/><path class="cls-1" d="M82.86,281.17c40.61-.31,86.16-.31,126.77,0-40.61.31-86.16.3-126.77,0Z"/><rect class="cls-5" x="118.07" y="324.17" width="55.3" height="15.4"/><path class="cls-9" d="M137.18,332.46h-.82v1.45a.38.38,0,0,1-.38.37.37.37,0,0,1-.36-.37v-4a.36.36,0,0,1,.36-.37h1.2a1.44,1.44,0,1,1,0,2.87Zm-.82-.75h.82a.69.69,0,0,0,.7-.68.7.7,0,0,0-.7-.7h-.82Z"/><path class="cls-9" d="M141.44,333.17h-1.63l-.33.87a.37.37,0,0,1-.34.24l-.13,0a.37.37,0,0,1-.22-.48l1.48-3.95a.36.36,0,0,1,.35-.23.36.36,0,0,1,.36.23l1.48,3.95a.39.39,0,0,1-.22.48l-.13,0a.35.35,0,0,1-.34-.24Zm-.27-.73-.55-1.44-.54,1.44Z"/><path class="cls-9" d="M146.13,330.22l-1.37,1.88v1.81a.36.36,0,0,1-.37.37.38.38,0,0,1-.37-.37V332.1l-1.36-1.88a.37.37,0,0,1,.59-.43l1.14,1.57,1.15-1.57a.36.36,0,0,1,.51-.08A.37.37,0,0,1,146.13,330.22Z"/><path class="cls-9" d="M149.66,333.91a.37.37,0,0,1-.36.37.37.37,0,0,1-.37-.37V330h0a.37.37,0,0,1,.15-.31.36.36,0,0,1,.5.08l2.17,3V330a.36.36,0,0,1,.36-.36.37.37,0,0,1,.37.36v3.89a.38.38,0,0,1-.37.37.38.38,0,0,1-.28-.14l0,0-2.14-3Z"/><path class="cls-9" d="M157.44,330.17a2.44,2.44,0,0,1,.68,1.7,2.41,2.41,0,0,1-.68,1.69,2.16,2.16,0,0,1-1.6.72,2.25,2.25,0,0,1-1.64-.72,2.44,2.44,0,0,1-.66-1.69,2.47,2.47,0,0,1,.66-1.7,2.24,2.24,0,0,1,1.64-.71A2.15,2.15,0,0,1,157.44,330.17Zm-.08,1.7a1.69,1.69,0,0,0-.46-1.17,1.43,1.43,0,0,0-2.14,0,1.71,1.71,0,0,0,0,2.33,1.42,1.42,0,0,0,1.08.48,1.44,1.44,0,0,0,1.06-.48A1.68,1.68,0,0,0,157.36,331.87Z"/><path class="cls-9" d="M165.38,330.15l-1.64,3.9s0,.05,0,.06h0l0,0v0a.09.09,0,0,0,0,0h0l-.06,0h-.29l-.06,0h0l-.05,0v0l0,0h0s0,0,0-.06l-.88-2.08-.87,2.08,0,.06h0l0,0v0s0,0,0,0h0l0,0h-.3l-.06,0h0s0,0,0,0v0s0,0,0,0h0l0-.06-1.65-3.9a.37.37,0,0,1,.2-.48.37.37,0,0,1,.48.2L161,333l.86-2.06a.37.37,0,0,1,.35-.23.39.39,0,0,1,.35.23l.86,2.06,1.31-3.1a.37.37,0,0,1,.49-.2A.37.37,0,0,1,165.38,330.15Z"/><rect class="cls-9" x="126.04" y="331.26" width="5.08" height="3.73"/><path class="cls-9" d="M130.5,331.49h-.71c0-1.78-.29-2.38-1.14-2.38s-1.27.58-1.27,2.38h-.72c0-1.08,0-3.1,2-3.1S130.5,330.41,130.5,331.49Z"/><path class="cls-7" d="M205,198.69l-4.61,46.08a4.69,4.69,0,0,1-5.13,4.2l-73.09-7.32a4.68,4.68,0,0,1-4.19-5.13l4.61-46.08a4.36,4.36,0,0,1,4.78-3.9l73.73,7.38A4.36,4.36,0,0,1,205,198.69Z"/><rect class="cls-6" x="120.9" y="203.9" width="82.83" height="10.31" transform="translate(22.21 -15.49) rotate(5.86)"/><rect class="cls-9" x="125.19" y="217.73" width="71.9" height="5.78" transform="translate(23.39 -15.31) rotate(5.86)"/><path class="cls-6" d="M189.27,222.27l-.47.21h-.05a.1.1,0,0,1-.09-.06.1.1,0,0,1,.05-.14l.64-.31a.12.12,0,0,1,.14.06.22.22,0,0,1,0,.08l-.29,2.86a.1.1,0,0,1-.12.09A.1.1,0,0,1,189,225Z"/><path class="cls-6" d="M190,225l1.59-1.17a.81.81,0,0,0,.17-1.12.8.8,0,0,0-.57-.32.82.82,0,0,0-.56.15l-.16.12a.11.11,0,0,1-.16,0,.11.11,0,0,1,0-.15l.17-.13a1.08,1.08,0,0,1,.71-.19,1,1,0,0,1,.72.41,1,1,0,0,1,.2.71,1.05,1.05,0,0,1-.41.72l-1.36,1,1.47.14a.12.12,0,0,1,.1.13.11.11,0,0,1-.12.09l-1.73-.17h0a.2.2,0,0,1-.08,0A.12.12,0,0,1,190,225Z"/><path class="cls-6" d="M194.76,222.7l-.89.74a1,1,0,0,1,.74,1.12,1,1,0,0,1-.39.71,1,1,0,0,1-.77.24,1.08,1.08,0,0,1-.72-.39.1.1,0,0,1,0-.15.11.11,0,0,1,.16,0,.81.81,0,0,0,.56.3.86.86,0,0,0,.61-.18.84.84,0,0,0,.31-.57.83.83,0,0,0-.19-.61.81.81,0,0,0-.56-.3.11.11,0,0,1-.09-.05h0a.11.11,0,0,1,0-.16l.85-.72-1.19-.12a.11.11,0,0,1-.1-.12.1.1,0,0,1,.12-.1l1.45.14a.1.1,0,0,1,.1.12.07.07,0,0,1,0,0Z"/><rect class="cls-6" x="124.26" y="228.65" width="56.08" height="1.13" transform="translate(24.22 -14.36) rotate(5.86)"/><rect class="cls-6" x="124.03" y="230.95" width="58.51" height="1.13" transform="translate(24.46 -14.45) rotate(5.86)"/><rect class="cls-6" x="123.83" y="232.81" width="52.35" height="1.13" transform="translate(24.63 -14.11) rotate(5.86)"/><rect class="cls-6" x="123.62" y="234.57" width="44.29" height="1.13" transform="matrix(0.99, 0.1, -0.1, 0.99, 24.79, -13.66)"/><path class="cls-7" d="M168,170.74l7.5,45.7a4.68,4.68,0,0,1-3.87,5.38L99.16,233.71a4.68,4.68,0,0,1-5.38-3.87l-7.5-45.7a4.36,4.36,0,0,1,3.6-5l73.12-12A4.36,4.36,0,0,1,168,170.74Z"/><path class="cls-2" d="M105.51,195.51l-4.74.78a5.37,5.37,0,0,1-6.17-4.43h0A5.37,5.37,0,0,1,99,185.69l4.74-.78a5.37,5.37,0,0,1,6.17,4.43h0A5.37,5.37,0,0,1,105.51,195.51Z"/><path class="cls-9" d="M160.1,181.64l-6.94,1.14a2.94,2.94,0,0,1-3.39-2.43h0A3,3,0,0,1,152.2,177l6.94-1.14a3,3,0,0,1,3.39,2.43h0A2.94,2.94,0,0,1,160.1,181.64Z"/><path class="cls-9" d="M96.49,206.92l-.56.47a.12.12,0,0,1-.08,0,.15.15,0,0,1-.12-.27l.77-.66a.16.16,0,0,1,.22,0,.15.15,0,0,1,0,.11l.67,4.09a.16.16,0,0,1-.13.18.17.17,0,0,1-.18-.13Z"/><path class="cls-9" d="M98.5,210.42l1.77-2.22a1.18,1.18,0,0,0,.25-.91,1.21,1.21,0,0,0-.43-.72,1.15,1.15,0,0,0-.91-.23,1.1,1.1,0,0,0-.72.42l-.19.23a.15.15,0,0,1-.21,0,.14.14,0,0,1,0-.22l.18-.24a1.54,1.54,0,0,1,.92-.54,1.45,1.45,0,0,1,1.15.31,1.4,1.4,0,0,1,.54.91,1.47,1.47,0,0,1-.3,1.16L99,210.3l2.11-.35a.17.17,0,0,1,.18.13.16.16,0,0,1-.13.18l-2.48.41h0a.14.14,0,0,1-.13,0A.17.17,0,0,1,98.5,210.42Z"/><path class="cls-9" d="M104.31,205.46l-1,1.37a1.6,1.6,0,0,1,.83.29,1.48,1.48,0,0,1,.61,1,1.44,1.44,0,0,1-.27,1.14,1.52,1.52,0,0,1-2.13.35.15.15,0,0,1,0-.22.16.16,0,0,1,.22,0,1.22,1.22,0,0,0,.9.21,1.27,1.27,0,0,0,.79-.48,1.25,1.25,0,0,0,.21-.91,1.2,1.2,0,0,0-.49-.78,1.17,1.17,0,0,0-.9-.21.18.18,0,0,1-.14,0h0a.16.16,0,0,1,0-.23l.92-1.32-1.7.28a.17.17,0,0,1-.19-.13.18.18,0,0,1,.13-.19l2.08-.34a.17.17,0,0,1,.19.13.19.19,0,0,1,0,.08A.08.08,0,0,1,104.31,205.46Z"/><path class="cls-9" d="M108.58,208.11l-2.41.39h0a.12.12,0,0,1-.1,0,.16.16,0,0,1-.06-.22l2.05-3.62h0a.14.14,0,0,1,.21,0,.12.12,0,0,1,.06.06s0,0,0,0v0l.5,3.05.3-.05a.15.15,0,0,1,.18.13.16.16,0,0,1-.13.18l-.3,0,.12.77a.16.16,0,0,1-.13.18.17.17,0,0,1-.18-.13Zm0-.31-.43-2.61-1.68,3Z"/><path class="cls-9" d="M114.23,207.67a.16.16,0,0,1,0-.23.15.15,0,0,1,.22,0,1.22,1.22,0,0,0,1.68-.28,1.2,1.2,0,0,0-1.16-1.9,1.21,1.21,0,0,0-.79.49.15.15,0,0,1-.22,0,.08.08,0,0,1-.05,0h0v0s0,0,0-.05,0,0,0,0l-.07-1.83a.16.16,0,0,1,0-.13.16.16,0,0,1,.1-.05l2.07-.34a.15.15,0,0,1,.18.13.16.16,0,0,1-.13.19l-1.94.32.06,1.34a1.51,1.51,0,0,1,.72-.32,1.5,1.5,0,0,1,1.75,1.26,1.52,1.52,0,0,1-.26,1.14,1.59,1.59,0,0,1-1,.61A1.56,1.56,0,0,1,114.23,207.67Z"/><path class="cls-9" d="M118,203.93a1.85,1.85,0,0,1,1.4-1.22.16.16,0,0,1,.18.12.16.16,0,0,1-.12.19,1.55,1.55,0,0,0-1.17,1,3,3,0,0,0-.17.94,1.51,1.51,0,0,1,1-.68,1.49,1.49,0,1,1-1.22,1.76,2.47,2.47,0,0,1-.06-.29A3.72,3.72,0,0,1,118,203.93Zm.23,2.06a.24.24,0,0,0,0,.08,0,0,0,0,1,0,0,1.18,1.18,0,0,0,2.3-.53,1.18,1.18,0,0,0-2.33.38Z"/><path class="cls-9" d="M122.65,206.51l1-4.17-2.14.35a.15.15,0,0,1-.18-.12.15.15,0,0,1,.13-.18l2.35-.39h.09a.21.21,0,0,1,.1.08s0,0,0,.05a.09.09,0,0,1,0,.09L123,206.59a.16.16,0,0,1-.12.12h-.07A.17.17,0,0,1,122.65,206.51Z"/><path class="cls-9" d="M126.35,201.56a.93.93,0,0,1,.82,1.58,1.46,1.46,0,1,1-1.77,1.66,1.48,1.48,0,0,1,.67-1.48.94.94,0,0,1-.49-.69A.93.93,0,0,1,126.35,201.56Zm.68,4.14a1.13,1.13,0,0,0,1-1.32,1.15,1.15,0,1,0-1,1.32Zm-.42-2.59a.63.63,0,0,0-.21-1.25.63.63,0,0,0,.21,1.25Z"/><path class="cls-9" d="M134.26,200.26a1.5,1.5,0,0,1,1.68,1.06s0,0,0,0a4,4,0,0,1-.06,2.22,1.83,1.83,0,0,1-1.39,1.22h0a.14.14,0,0,1-.18-.12.16.16,0,0,1,.12-.19,1.53,1.53,0,0,0,1.17-1,3.2,3.2,0,0,0,.17-.94,1.46,1.46,0,0,1-1,.67,1.48,1.48,0,1,1-.48-2.93Zm1.4,1.27a1.17,1.17,0,0,0-1.35-1,1.19,1.19,0,0,0-1,1.34,1.18,1.18,0,0,0,2.32-.38Z"/><path class="cls-9" d="M137.23,202.06a2.83,2.83,0,0,1,.17-1.63,1.42,1.42,0,0,1,1-.85,1.44,1.44,0,0,1,1.23.49,3.09,3.09,0,0,1,.51,3.11,1.39,1.39,0,0,1-1,.85,1.37,1.37,0,0,1-1.22-.49A2.83,2.83,0,0,1,137.23,202.06Zm.31-.05a2.61,2.61,0,0,0,.6,1.32,1,1,0,0,0,1.71-.28,2.58,2.58,0,0,0,.15-1.44,2.5,2.5,0,0,0-.61-1.32,1,1,0,0,0-1.7.28A2.57,2.57,0,0,0,137.54,202Z"/><path class="cls-9" d="M142.08,199.44l-.57.47a.13.13,0,0,1-.07,0,.17.17,0,0,1-.15,0,.15.15,0,0,1,0-.22l.77-.66a.17.17,0,0,1,.22,0,.14.14,0,0,1,0,.11l.68,4.09a.16.16,0,0,1-.13.18.17.17,0,0,1-.18-.13Z"/><path class="cls-9" d="M144.09,202.94l1.77-2.22a1.17,1.17,0,0,0,.24-.91,1.14,1.14,0,0,0-.42-.72,1.17,1.17,0,0,0-.91-.23,1.12,1.12,0,0,0-.73.42l-.18.23a.16.16,0,0,1-.25-.19l.18-.24a1.5,1.5,0,0,1,.93-.53,1.38,1.38,0,0,1,1.14.3,1.42,1.42,0,0,1,.55.91,1.51,1.51,0,0,1-.3,1.16l-1.52,1.9,2.1-.35a.16.16,0,0,1,.18.14.14.14,0,0,1-.12.17l-2.48.41h0a.13.13,0,0,1-.12,0A.16.16,0,0,1,144.09,202.94Z"/><path class="cls-9" d="M153.7,197.36l-.95,1.37a1.5,1.5,0,0,1,.83.28,1.52,1.52,0,0,1,.61,1,1.48,1.48,0,0,1-.27,1.14,1.52,1.52,0,0,1-2.13.35.16.16,0,0,1,.19-.26,1.2,1.2,0,0,0,1.68-.28,1.17,1.17,0,0,0,.21-.9,1.2,1.2,0,0,0-1.38-1,.16.16,0,0,1-.14,0h0a.14.14,0,0,1,0-.22l.92-1.32-1.71.28a.16.16,0,0,1-.18-.14.15.15,0,0,1,.13-.18l2.08-.34a.16.16,0,0,1,.19.13.15.15,0,0,1,0,.07S153.72,197.34,153.7,197.36Z"/><path class="cls-9" d="M158,200l-2.41.4h0s-.08,0-.1,0a.14.14,0,0,1-.06-.21l2.05-3.63h0a.15.15,0,0,1,.21-.06s0,.05.06.07v0l.5,3.06.29-.05a.16.16,0,0,1,.19.12.16.16,0,0,1-.14.18l-.29,0,.12.76a.15.15,0,0,1-.13.18.15.15,0,0,1-.18-.13Zm-.05-.3-.42-2.61L155.82,200Z"/><path class="cls-9" d="M159.82,200.19a.15.15,0,0,1,0-.22.16.16,0,0,1,.23,0,1.22,1.22,0,0,0,1.68-.28,1.22,1.22,0,0,0-.27-1.69,1.24,1.24,0,0,0-1.69.28.15.15,0,0,1-.22,0l0,0h0v0a.43.43,0,0,1,0-.05v0l-.08-1.83a.11.11,0,0,1,0-.12.15.15,0,0,1,.09-.06l2.08-.34a.16.16,0,0,1,.18.13.16.16,0,0,1-.13.19l-1.94.32.06,1.35a1.37,1.37,0,0,1,.72-.33,1.45,1.45,0,0,1,1.13.26,1.53,1.53,0,0,1,.35,2.14,1.54,1.54,0,0,1-1,.61A1.51,1.51,0,0,1,159.82,200.19Z"/><path class="cls-9" d="M163.56,196.45a1.82,1.82,0,0,1,1.4-1.22.16.16,0,0,1,.18.12.18.18,0,0,1-.13.19,1.52,1.52,0,0,0-1.16,1,3,3,0,0,0-.17.95,1.48,1.48,0,0,1,2.73.54,1.49,1.49,0,0,1-2.94.53l-.06-.29A3.73,3.73,0,0,1,163.56,196.45Zm.22,2.06,0,.08v0a1.21,1.21,0,1,0,0-.15Z"/><rect class="cls-9" x="98.86" y="215.26" width="39.33" height="1.93" transform="translate(-33.44 22.04) rotate(-9.32)"/><rect class="cls-9" x="99.63" y="220.43" width="27.84" height="1.93" transform="translate(-34.34 21.3) rotate(-9.32)"/><rect class="cls-9" x="127.29" y="179.46" width="19.62" height="1.93" transform="translate(-27.4 24.57) rotate(-9.32)"/><rect class="cls-5" x="94.31" y="122.34" width="103.86" height="1"/><path class="cls-5" d="M98.27,122.84a4,4,0,1,1-4-4A4,4,0,0,1,98.27,122.84Z"/><path class="cls-5" d="M150.2,122.84a4,4,0,1,1-4-4A4,4,0,0,1,150.2,122.84Z"/><path class="cls-5" d="M202.13,122.84a4,4,0,1,1-4-4A4,4,0,0,1,202.13,122.84Z"/><path class="cls-9" d="M200.39,122.84a2.22,2.22,0,1,1-2.22-2.21A2.21,2.21,0,0,1,200.39,122.84Z"/><path d="M91.68,131.91l-.68.93v.9a.18.18,0,0,1-.18.18.19.19,0,0,1-.19-.18v-.9l-.67-.93a.18.18,0,1,1,.29-.21l.57.77.57-.77a.17.17,0,0,1,.25,0A.18.18,0,0,1,91.68,131.91Z"/><path d="M93.71,131.88a1.27,1.27,0,0,1,.33.85,1.24,1.24,0,0,1-.33.84,1.1,1.1,0,0,1-1.61,0,1.2,1.2,0,0,1-.33-.84,1.22,1.22,0,0,1,.33-.85,1.1,1.1,0,0,1,1.61,0Zm0,.85a.87.87,0,0,0-.23-.59.74.74,0,0,0-1.07,0,.89.89,0,0,0,0,1.17.74.74,0,0,0,1.07,0A.86.86,0,0,0,93.67,132.73Z"/><path d="M95.51,133.92a1,1,0,0,1-1-1v-1.18a.18.18,0,0,1,.19-.18.18.18,0,0,1,.18.18V133a.6.6,0,0,0,1.19,0v-1.18a.18.18,0,0,1,.18-.18.18.18,0,0,1,.19.18V133A1,1,0,0,1,95.51,133.92Z"/><path d="M98.72,133.65a.18.18,0,0,1-.12.23h-.08a.27.27,0,0,1-.23-.15.87.87,0,0,1-.07-.4.39.39,0,0,0,0-.14.32.32,0,0,0-.1-.1.64.64,0,0,0-.19-.08H97.5v.72a.19.19,0,0,1-.19.18.18.18,0,0,1-.18-.18v-2a.18.18,0,0,1,.18-.18h.6a.71.71,0,0,1,.71.71.72.72,0,0,1-.26.55.68.68,0,0,1,.12.12.7.7,0,0,1,.11.36.48.48,0,0,0,0,.19A.2.2,0,0,1,98.72,133.65Zm-.47-1.34a.35.35,0,0,0-.34-.35H97.5v.69h.41A.34.34,0,0,0,98.25,132.31Z"/><path d="M90.87,135.88a1.21,1.21,0,0,1,0,1.68,1.09,1.09,0,0,1-.8.36,1.11,1.11,0,0,1-.81-.36,1.23,1.23,0,0,1,0-1.68,1.11,1.11,0,0,1,.81-.36A1.09,1.09,0,0,1,90.87,135.88Zm0,.84a.82.82,0,0,0-.23-.58.73.73,0,0,0-.53-.24.71.71,0,0,0-.53.24.82.82,0,0,0-.23.58.86.86,0,0,0,.23.58.71.71,0,0,0,.53.24.73.73,0,0,0,.53-.24A.86.86,0,0,0,90.83,136.72Z"/><path d="M93.4,137.64a.18.18,0,0,1-.12.23h-.07a.22.22,0,0,1-.13,0,.43.43,0,0,1-.11-.12,1,1,0,0,1-.07-.4.2.2,0,0,0,0-.14.32.32,0,0,0-.1-.1.62.62,0,0,0-.18-.08h-.4v.72a.19.19,0,1,1-.37,0v-2a.18.18,0,0,1,.19-.18h.59a.71.71,0,0,1,.71.71.71.71,0,0,1-.25.55.43.43,0,0,1,.11.12.61.61,0,0,1,.11.36c0,.1,0,.16,0,.2A.15.15,0,0,1,93.4,137.64Zm-.46-1.34a.35.35,0,0,0-.35-.34h-.41v.68h.41A.35.35,0,0,0,92.94,136.3Z"/><path d="M93.94,137.73v-2a.18.18,0,0,1,.18-.18h.4a1.17,1.17,0,0,1,0,2.33h-.4A.19.19,0,0,1,93.94,137.73Zm.37-.18h.21a.81.81,0,0,0,.79-.8.79.79,0,0,0-.79-.79h-.21Z"/><path d="M96.17,137.73v-2a.18.18,0,0,1,.18-.18h1.09a.19.19,0,0,1,.18.18.2.2,0,0,1-.18.19h-.9v.6h.77a.19.19,0,0,1,.18.19.18.18,0,0,1-.18.18h-.77v.62h.9a.19.19,0,0,1,.18.18.2.2,0,0,1-.18.19H96.35A.19.19,0,0,1,96.17,137.73Z"/><path d="M99.75,137.64a.18.18,0,0,1-.12.23h-.08a.24.24,0,0,1-.13,0,.29.29,0,0,1-.1-.12.87.87,0,0,1-.07-.4.39.39,0,0,0,0-.14.32.32,0,0,0-.1-.1.64.64,0,0,0-.19-.08h-.39v.72a.2.2,0,0,1-.19.19.19.19,0,0,1-.18-.19v-2a.18.18,0,0,1,.18-.18h.6a.71.71,0,0,1,.71.71.72.72,0,0,1-.26.55.68.68,0,0,1,.12.12.7.7,0,0,1,.11.36.56.56,0,0,0,0,.2A.16.16,0,0,1,99.75,137.64Zm-.47-1.34a.34.34,0,0,0-.34-.34h-.41v.68h.41A.34.34,0,0,0,99.28,136.3Z"/><path d="M138.82,133.74v-2a.18.18,0,0,1,.18-.18h.39a1.16,1.16,0,1,1,0,2.32H139A.18.18,0,0,1,138.82,133.74Zm.37-.19h.2a.79.79,0,0,0,.8-.79.8.8,0,0,0-.8-.8h-.2Z"/><path d="M141,133.74v-2a.18.18,0,0,1,.19-.18h1.09a.18.18,0,0,1,0,.36h-.91v.61h.78a.19.19,0,0,1,.18.19.18.18,0,0,1-.18.18h-.78v.61h.91a.2.2,0,0,1,.18.19.19.19,0,0,1-.18.18h-1.09A.18.18,0,0,1,141,133.74Z"/><path d="M143,133.74v-2a.18.18,0,0,1,.18-.18.19.19,0,0,1,.19.18v1.77h.9a.2.2,0,0,1,.18.19.19.19,0,0,1-.18.18H143.2A.18.18,0,0,1,143,133.74Z"/><path d="M144.93,131.78a.18.18,0,0,1,.18-.18.19.19,0,0,1,.19.18v2a.19.19,0,0,1-.19.18.18.18,0,0,1-.18-.18Z"/><path d="M146.68,133.89l0,0h0v0h0v0l-.82-1.94a.17.17,0,0,1,.1-.23.18.18,0,0,1,.24.09l.65,1.54.64-1.54a.18.18,0,0,1,.24-.09.17.17,0,0,1,.1.23l-.82,1.94a0,0,0,0,1,0,0h0l0,0h0l0,0h0l0,0h-.15l0,0Z"/><path d="M148.32,133.74v-2a.18.18,0,0,1,.18-.18h1.09a.18.18,0,0,1,0,.36h-.9v.61h.77a.19.19,0,0,1,.18.19.18.18,0,0,1-.18.18h-.77v.61h.9a.2.2,0,0,1,.18.19.19.19,0,0,1-.18.18H148.5A.18.18,0,0,1,148.32,133.74Z"/><path d="M151.9,133.65a.18.18,0,0,1-.12.23h-.08a.27.27,0,0,1-.23-.15.87.87,0,0,1-.07-.4.39.39,0,0,0,0-.14.32.32,0,0,0-.1-.1.64.64,0,0,0-.19-.08h-.39v.72a.19.19,0,0,1-.19.18.18.18,0,0,1-.18-.18v-2a.18.18,0,0,1,.18-.18h.6a.71.71,0,0,1,.71.71.72.72,0,0,1-.26.55.68.68,0,0,1,.12.12.7.7,0,0,1,.11.36.48.48,0,0,0,0,.19A.2.2,0,0,1,151.9,133.65Zm-.47-1.34a.35.35,0,0,0-.34-.35h-.41v.69h.41A.34.34,0,0,0,151.43,132.31Z"/><path d="M154,131.91l-.68.93v.9a.18.18,0,0,1-.18.18.19.19,0,0,1-.19-.18v-.9l-.67-.93a.17.17,0,0,1,0-.25.18.18,0,0,1,.26,0l.57.77.56-.77a.18.18,0,0,1,.26,0A.18.18,0,0,1,154,131.91Z"/><path d="M140.69,135.88a1.21,1.21,0,0,1,0,1.68,1.05,1.05,0,0,1-.79.36,1.13,1.13,0,0,1-.82-.36,1.26,1.26,0,0,1,0-1.68,1.13,1.13,0,0,1,.82-.36A1.05,1.05,0,0,1,140.69,135.88Zm0,.84a.82.82,0,0,0-.23-.58.69.69,0,0,0-.52-.24.73.73,0,0,0-.54.24.82.82,0,0,0-.23.58.86.86,0,0,0,.23.58.73.73,0,0,0,.54.24.69.69,0,0,0,.52-.24A.86.86,0,0,0,140.65,136.72Z"/><path d="M142.46,137h-.4v.72a.2.2,0,0,1-.19.19.19.19,0,0,1-.18-.19v-2a.18.18,0,0,1,.18-.18h.59a.71.71,0,1,1,0,1.42Zm-.4-.37h.4a.34.34,0,1,0,0-.68h-.4Z"/><path d="M145.05,136h-.53v1.77a.18.18,0,0,1-.18.19.19.19,0,0,1-.19-.19V136h-.52a.19.19,0,0,1-.18-.19.18.18,0,0,1,.18-.18h1.42a.18.18,0,0,1,.18.18A.19.19,0,0,1,145.05,136Z"/><path d="M145.8,135.77a.18.18,0,0,1,.19-.18.18.18,0,0,1,.18.18v2a.18.18,0,0,1-.18.19.18.18,0,0,1-.19-.19Z"/><path d="M148.63,135.88a1.21,1.21,0,0,1,0,1.68,1.07,1.07,0,0,1-.79.36,1.12,1.12,0,0,1-.82-.36,1.23,1.23,0,0,1,0-1.68,1.12,1.12,0,0,1,.82-.36A1.07,1.07,0,0,1,148.63,135.88Zm0,.84a.82.82,0,0,0-.23-.58.71.71,0,0,0-.52-.24.72.72,0,0,0-.54.24.82.82,0,0,0-.23.58.86.86,0,0,0,.23.58.72.72,0,0,0,.54.24.71.71,0,0,0,.52-.24A.86.86,0,0,0,148.59,136.72Z"/><path d="M149.9,137.73a.18.18,0,1,1-.36,0V135.8h0a.18.18,0,0,1,.33-.12l1.07,1.49V135.8a.18.18,0,0,1,.36,0v1.93a.19.19,0,0,1-.18.19.21.21,0,0,1-.14-.07v0l-1.07-1.48Z"/><path d="M152,137.34a.17.17,0,0,1,.24,0,1.12,1.12,0,0,0,.64.26.74.74,0,0,0,.41-.12.31.31,0,0,0,.14-.24.18.18,0,0,0,0-.11.41.41,0,0,0-.09-.1,1.51,1.51,0,0,0-.46-.16h0a2,2,0,0,1-.43-.13.84.84,0,0,1-.31-.25.53.53,0,0,1-.07-.28.6.6,0,0,1,.26-.48,1,1,0,0,1,.58-.18,1.28,1.28,0,0,1,.72.27.17.17,0,1,1-.19.28,1,1,0,0,0-.53-.21.68.68,0,0,0-.37.11.28.28,0,0,0-.13.21.3.3,0,0,0,0,.1l.09.08a1.13,1.13,0,0,0,.42.15h0a2.06,2.06,0,0,1,.46.14.79.79,0,0,1,.33.27.55.55,0,0,1,.08.29.63.63,0,0,1-.29.51,1,1,0,0,1-.61.19,1.44,1.44,0,0,1-.86-.33A.17.17,0,0,1,152,137.34Z"/><path d="M191.84,133h-.41v.72a.18.18,0,0,1-.19.18.19.19,0,0,1-.18-.18v-2a.19.19,0,0,1,.18-.18h.6a.71.71,0,1,1,0,1.42Zm-.41-.37h.41a.35.35,0,0,0,.35-.34.36.36,0,0,0-.35-.35h-.41Z"/><path d="M194,133.37h-.81l-.17.43a.18.18,0,0,1-.17.11h-.06a.19.19,0,0,1-.11-.24l.73-2a.2.2,0,0,1,.18-.11.19.19,0,0,1,.18.11l.73,2a.19.19,0,0,1-.11.24h-.06a.18.18,0,0,1-.17-.11Zm-.14-.36-.27-.72-.27.72Z"/><path d="M196.29,131.91l-.68.93v.9a.18.18,0,0,1-.19.18.19.19,0,0,1-.18-.18v-.9l-.68-.93a.18.18,0,0,1,0-.25.17.17,0,0,1,.25,0l.57.77.57-.77a.18.18,0,0,1,.26,0A.19.19,0,0,1,196.29,131.91Z"/><path d="M198.68,131.78v2a.19.19,0,0,1-.19.18.18.18,0,0,1-.18-.18v-1.4l-.48.67a.17.17,0,0,1-.15.07h0a.19.19,0,0,1-.15-.07l-.47-.67v1.4a.19.19,0,0,1-.19.18.18.18,0,0,1-.18-.18v-2a.18.18,0,0,1,.18-.18h0a.19.19,0,0,1,.15.07l.66.92.66-.92a.18.18,0,0,1,.15-.07h0A.19.19,0,0,1,198.68,131.78Z"/><path d="M199.32,133.74v-2a.18.18,0,0,1,.18-.18h1.09a.18.18,0,0,1,0,.36h-.9v.61h.77a.2.2,0,0,1,.19.19.19.19,0,0,1-.19.18h-.77v.61h.9a.19.19,0,0,1,.18.19.18.18,0,0,1-.18.18H199.5A.18.18,0,0,1,199.32,133.74Z"/><path d="M201.66,133.74a.19.19,0,0,1-.18.18.18.18,0,0,1-.19-.18v-1.93h0a.21.21,0,0,1,.08-.15.19.19,0,0,1,.25,0l1.07,1.49v-1.37a.18.18,0,0,1,.18-.18.19.19,0,0,1,.19.18v1.93a.19.19,0,0,1-.19.18.16.16,0,0,1-.13-.06l0,0-1.06-1.48Z"/><path d="M205.25,132h-.53v1.78a.18.18,0,0,1-.19.18.18.18,0,0,1-.18-.18V132h-.52a.18.18,0,1,1,0-.36h1.42a.18.18,0,0,1,0,.36Z"/><path d="M193.45,135.77v2a.2.2,0,0,1-.19.19.19.19,0,0,1-.18-.19v-1.4l-.48.67a.18.18,0,0,1-.15.07h0a.18.18,0,0,1-.15-.07l-.47-.67v1.4a.2.2,0,0,1-.19.19.19.19,0,0,1-.18-.19v-2a.18.18,0,0,1,.18-.18h0a.19.19,0,0,1,.15.07l.66.92.66-.92a.18.18,0,0,1,.15-.07h0A.19.19,0,0,1,193.45,135.77Z"/><path d="M194.09,137.73v-2a.18.18,0,0,1,.18-.18h1.09a.19.19,0,0,1,.18.18.2.2,0,0,1-.18.19h-.9v.6h.77a.19.19,0,0,1,.18.19.18.18,0,0,1-.18.18h-.77v.62h.9a.19.19,0,0,1,.18.18.2.2,0,0,1-.18.19h-1.09A.19.19,0,0,1,194.09,137.73Z"/><path d="M197.48,136H197v1.77a.18.18,0,0,1-.18.19.18.18,0,0,1-.18-.19V136h-.53a.19.19,0,0,1-.18-.19.18.18,0,0,1,.18-.18h1.42a.19.19,0,0,1,.19.18A.2.2,0,0,1,197.48,136Z"/><path d="M198.22,137.73v-2a.18.18,0,0,1,.18-.18.19.19,0,0,1,.19.18v.8h.86v-.8a.18.18,0,0,1,.18-.18.19.19,0,0,1,.19.18v2a.19.19,0,0,1-.19.19.18.18,0,0,1-.18-.19v-.8h-.86v.8a.19.19,0,0,1-.19.19A.18.18,0,0,1,198.22,137.73Z"/><path d="M202.31,135.88a1.21,1.21,0,0,1,0,1.68,1.08,1.08,0,0,1-.79.36,1.12,1.12,0,0,1-.82-.36,1.23,1.23,0,0,1,0-1.68,1.12,1.12,0,0,1,.82-.36A1.08,1.08,0,0,1,202.31,135.88Zm0,.84a.82.82,0,0,0-.23-.58.71.71,0,0,0-.52-.24.72.72,0,0,0-.54.24.82.82,0,0,0-.23.58.86.86,0,0,0,.23.58.72.72,0,0,0,.54.24.71.71,0,0,0,.52-.24A.86.86,0,0,0,202.27,136.72Z"/><path d="M203.2,137.73v-2a.18.18,0,0,1,.18-.18h.4a1.17,1.17,0,0,1,0,2.33h-.4A.19.19,0,0,1,203.2,137.73Zm.37-.18h.21a.8.8,0,0,0,.79-.8.79.79,0,0,0-.79-.79h-.21Z"/><rect class="cls-10" x="91.95" y="260.14" width="108.59" height="1.39"/><rect class="cls-10" x="96.27" y="263.58" width="99.95" height="1.39"/><rect class="cls-10" x="91.95" y="267.01" width="108.59" height="1.39"/><rect class="cls-10" x="103.31" y="270.44" width="85.86" height="1.39"/><path class="cls-11" d="M251.58,389.87c-2-1.4-40.17-54.25-40.36-57.19-.07-1.11,7.31-7.13,16.42-14.14,2-1.52,28.94-32.46,28.94-32.46l25,34.36-29.2,32.1s5.58,26.78,5.43,30S253.53,391.27,251.58,389.87Z"/><path class="cls-1" d="M251.57,389.87c-1.95-1.4-40.16-54.25-40.34-57.19-.08-1.12,7.29-7.13,16.41-14.14.69-.53,4.44-4.68,9-9.85l24.74,33.92-9,9.93s5.56,26.78,5.42,30S253.53,391.26,251.57,389.87Z"/><path class="cls-5" d="M251.62,390.08c-2-1.4-40.39-54.55-40.58-57.5-.07-1.1,7.17-6.74,15.63-14.21,2-1.81,3.86-4.12,6.14-5.85L257.92,347l-5.5,5.53s5.62,26.93,5.47,30.19S253.59,391.49,251.62,390.08Z"/><path class="cls-6" d="M253.2,387.78c-6.23-9.06-32.19-45-39-53.54,0-.06-.1,0,0,.05,6,9.12,32.22,44.89,38.93,53.6C253.19,388.07,253.33,388,253.2,387.78Z"/><path class="cls-6" d="M255.31,352.37c-1.88-4-5.52-7.88-10-8.75-.17,0-.21.21-.1.3a60.46,60.46,0,0,1,9.61,8.76A.28.28,0,0,0,255.31,352.37Z"/><path class="cls-6" d="M255.61,356c-1.88-4-5.52-7.87-10-8.75-.17,0-.22.22-.1.3a60.87,60.87,0,0,1,9.6,8.76A.28.28,0,0,0,255.61,356Z"/><path class="cls-6" d="M255.92,359.64c-1.88-4-5.52-7.88-10-8.75-.17,0-.21.21-.1.3a60.87,60.87,0,0,1,9.61,8.75A.27.27,0,0,0,255.92,359.64Z"/><path class="cls-6" d="M256.22,363.27c-1.88-4-5.52-7.88-10-8.75-.17,0-.22.21-.1.3a60.39,60.39,0,0,1,9.6,8.76A.28.28,0,0,0,256.22,363.27Z"/><path class="cls-6" d="M268.1,353c.9-2.75-1.81-4.69-4.1-5.27a23.1,23.1,0,0,0-11.93.41.11.11,0,0,0-.07.17.54.54,0,0,0,0,.87c3.17,2.12,6.29,4.78,10,5.86C264.14,355.66,267.25,355.58,268.1,353Zm-10.68-1.59c-1.58-1-3.11-2.08-4.73-3a67.69,67.69,0,0,1,7-.09,25.12,25.12,0,0,1,3.35.41c1.7.35,6.71,3,2.42,5.18C263.07,355.07,259.3,352.59,257.42,351.39Z"/><path class="cls-6" d="M246.54,338.55c.86,3.78,3.32,7.05,5.25,10.34a.53.53,0,0,0,.86,0c.07,0,.15,0,.18,0A23,23,0,0,0,254,337c-.43-2.32-2.21-5.14-5-4.41C246.3,333.25,246,336.34,246.54,338.55Zm1.35-3.39c2.42-4.16,4.79,1,5,2.72a25.3,25.3,0,0,1,.2,3.37,67.46,67.46,0,0,1-.51,7c-.84-1.67-1.82-3.26-2.73-4.9C248.81,341.36,246.56,337.45,247.89,335.16Z"/><path class="cls-6" d="M276.6,255.49c-2.37,11.69-41.16,48.45-41.16,48.45l33.83,39s59.15-58.85,55.56-84.69c-3.13-22.47-36.78-112.85-36.78-112.85H249.23S278.93,244,276.6,255.49Z"/><path class="cls-7" d="M276.6,255.49c-2.37,11.69-41.16,48.45-41.16,48.45l33.83,39s59.15-58.85,55.56-84.69c-3.13-22.47-36.78-112.85-36.78-112.85H249.23S278.93,244,276.6,255.49Z"/><path class="cls-6" d="M273.11,333.7c-4.49-5.6-3.12-4.05-7.68-9.6-2.23-2.71-16.9-20.53-19.42-22.69a.08.08,0,0,0-.12.09c1.7,2.87,16.67,20.42,19,23.09,4.66,5.46,3.38,3.84,8.1,9.24C273,333.93,273.2,333.8,273.11,333.7Z"/><path class="cls-6" d="M281.42,249.79c-.56-2.92-1.19-5.83-1.81-8.74q-1.89-8.9-4-17.76-4.2-17.56-9.12-34.93c-3.31-11.62-6.81-23.22-10.84-34.61-.5-1.4-1-2.81-1.52-4.21,0-.1-.21-.06-.17.05,3.49,11.41,7.08,22.79,10.35,34.27s6.28,22.92,9.12,34.46c1.42,5.79,2.75,11.61,4.05,17.43q1,4.29,1.87,8.6A62.05,62.05,0,0,1,281,253.2a13.5,13.5,0,0,1-2.29,8c-1.45,2.38-3.16,4.62-4.82,6.87-3.31,4.49-25.18,29.79-26.2,30.75-.08.08,0,.19.12.12,4.24-3.81,21.32-22.92,24.73-27.41,1.68-2.22,3.32-4.48,4.93-6.75a26.47,26.47,0,0,0,3.86-6.8A15.93,15.93,0,0,0,281.42,249.79Z"/><path class="cls-6" d="M281.34,145.43l-7,92.49c-6.72-31.65-25.05-92.49-25.05-92.49Z"/><path class="cls-11" d="M349.7,399.62c-2.28.76-67.5.49-70-1.09-1-.59-1.46-10.1-1.75-21.59-.08-2.49-9.18-42.52-9.18-42.52l42.49.05L320,377s24.93,11.27,27.46,13.3S352,398.87,349.7,399.62Z"/><path class="cls-1" d="M349.7,399.63c-2.28.75-67.5.49-70-1.1-1-.59-1.46-10.09-1.75-21.59,0-.87-1.17-6.35-2.63-13.11h42L320,377s24.92,11.28,27.45,13.3S352,398.87,349.7,399.63Z"/><path class="cls-5" d="M349.9,399.71c-2.29.76-67.88.5-70.37-1.09-.93-.59-1.22-9.76-2.28-21-.25-2.71-1.05-5.55-1.1-8.41l42.67,0L320,377s25.07,11.33,27.62,13.37S352.2,399,349.9,399.71Z"/><path class="cls-6" d="M349,397.08c-11-.31-55.36-.54-66.25,0-.09,0-.09.06,0,.07,10.89.55,55.26.41,66.25.12C349.2,397.26,349.2,397.09,349,397.08Z"/><path class="cls-6" d="M321.6,374.51c-4.32-.82-9.61-.18-12.93,2.89-.13.12,0,.3.18.26a60.58,60.58,0,0,1,12.73-2.6A.28.28,0,0,0,321.6,374.51Z"/><path class="cls-6" d="M324.72,376.41c-4.33-.83-9.62-.18-12.94,2.88-.13.12.05.3.19.26A60.58,60.58,0,0,1,324.7,377,.27.27,0,0,0,324.72,376.41Z"/><path class="cls-6" d="M327.83,378.3c-4.32-.82-9.61-.18-12.93,2.89-.13.12,0,.3.18.26a60.58,60.58,0,0,1,12.73-2.6A.28.28,0,0,0,327.83,378.3Z"/><path class="cls-6" d="M331,380.2c-4.32-.83-9.62-.19-12.94,2.88-.13.12.05.3.19.26a60.58,60.58,0,0,1,12.73-2.6A.27.27,0,0,0,331,380.2Z"/><path class="cls-6" d="M329.63,364.54c-1.69-2.35-4.86-1.31-6.67.2a23.14,23.14,0,0,0-6.7,9.89.11.11,0,0,0,.1.15.54.54,0,0,0,.68.55c3.57-1.31,7.56-2.27,10.63-4.64C329.46,369.31,331.23,366.76,329.63,364.54Zm-7.58,7.69c-1.74.69-3.51,1.29-5.23,2a69,69,0,0,1,4.05-5.69,23.36,23.36,0,0,1,2.3-2.47c1.29-1.16,6.4-3.64,5.61,1.11C328.35,369.83,324.13,371.41,322.05,372.23Z"/><path class="cls-6" d="M305.27,373.45c3.56,1.54,7.66,1.48,11.45,1.86a.54.54,0,0,0,.52-.69c.06,0,.11-.1.06-.18a23.15,23.15,0,0,0-8.94-7.92c-2.13-1-5.46-1.24-6.52,1.46C300.84,370.52,303.19,372.56,305.27,373.45Zm-1.94-3.09c-1.94-4.4,3.62-3.27,5.16-2.46a24,24,0,0,1,2.84,1.82,67.54,67.54,0,0,1,5.33,4.51c-1.85-.3-3.71-.44-5.57-.68C308.87,373.28,304.39,372.79,303.33,370.36Z"/><path class="cls-7" d="M287.63,145.44a155.64,155.64,0,0,0-3.34,19.37c-.81,8.12-1.82,15.31-2.91,16.2s-7.36,5-9.42,6.21c0,0,19.13,58,24.06,77.31,7.16,28,21.83,96.22,21.83,96.22H272.18s-11.41-64.17-17.48-90.85c-5.21-22.87-25.14-91.47-25.14-91.47a39.8,39.8,0,0,1,1.61-33S287.63,145.4,287.63,145.44Z"/><path class="cls-6" d="M313.33,351.91c-6.69,0-4.77-.13-11.46-.1-3.27,0-24.78.15-27.83.74-.07,0-.07.14,0,.15,3.07.49,24.57,0,27.84-.13,6.69-.17,4.77-.2,11.45-.45C313.45,352.12,313.45,351.91,313.33,351.91Z"/><path class="cls-6" d="M284.62,178.72a87.85,87.85,0,0,0-12.6,8.43c-.15.12,0,.37.17.26,4.27-2.67,8.64-5.28,12.76-8.18A.3.3,0,0,0,284.62,178.72Z"/><path class="cls-6" d="M281.13,147.17c0-.15-.32-.14-.29,0a154.06,154.06,0,0,1,1.61,15.4c.15,2.39.27,15.71-4,15.39-.71-.05-1.16-.67-1.43-1.69a16.76,16.76,0,0,1-.08-4.07c0-2.8,0-5.59-.22-8.38a75.57,75.57,0,0,0-2.56-15.38.13.13,0,0,0-.26.06A142.91,142.91,0,0,1,276,170c0,3.47-.9,8.83,2.72,8.81s4.7-8.94,4.78-11.34A78.84,78.84,0,0,0,281.13,147.17Z"/><path class="cls-6" d="M278.65,178.32a25,25,0,0,0-.5,2.85,6.19,6.19,0,0,0,0,2.27.16.16,0,0,0,.29,0,7.8,7.8,0,0,0,.61-2.31c.18-.88.39-1.76.54-2.65A.46.46,0,0,0,278.65,178.32Z"/><path class="cls-6" d="M268.09,336c-.13-1.28-.29-2.57-.46-3.85-.33-2.46-4.06-22.43-6-32.15-1.12-5.5-2.41-10.94-3.77-16.37-.1-.38-.59-.2-.53.17.83,5,1.63,10,2.57,14.9s6.23,30.38,6.73,33.14c.25,1.37.51,2.75.79,4.12s.66,2.71.87,4.09c0,.13.2.07.18-.06C268.26,338.71,268.23,337.37,268.09,336Z"/><path class="cls-6" d="M300.83,281.9c-1.52-7.58-3.57-15.06-5.64-22.5-4.14-15-9-29.75-13.9-44.52q-2.12-6.37-4.22-12.76c-.7-2.12-4.14-13.59-4.57-14.68a.09.09,0,0,0-.18.06c1,3.9,2.34,9.6,3.48,13.47s2.36,7.61,3.55,11.41c2.33,7.48,4.7,14.94,7,22.44,4.47,14.82,8.92,29.63,12.55,44.68,1,4.22,2,8.43,3,12.66s1.72,8.49,2.61,12.73c0,.11.22.08.21,0C303.88,297.13,302.35,289.5,300.83,281.9Z"/><path class="cls-6" d="M272.44,321.53c-2.51-14.45-5.52-28.83-8.86-43.11s-7.08-28.63-11.2-42.79-8.67-28.18-13.56-42.09a175.46,175.46,0,0,1-6.2-20c-1.51-6.75-2.27-14.06-.7-20.87a34.53,34.53,0,0,1,1.56-5.07c.05-.12-.12-.21-.17-.1-5.49,12.8-1.93,26.8,2.25,39.41,2.29,6.91,4.74,13.77,7,20.7Q246,218.24,249.23,229c4.21,14.2,8.12,28.48,11.63,42.88s6.62,28.87,9.37,43.42,2.6,13.41,5,28.09c.3,1.91.54,3.82.79,5.74,0,.11.18.1.17,0C274.39,334.59,275,336,272.44,321.53Z"/><path class="cls-6" d="M292,91.32a.43.43,0,0,1-.28.5l-1.74.37c-2.16-3.87-4.32-6.88-3.69-5.68a21.4,21.4,0,0,1,2,6c-.77.16-2.55.5-3.44.67-2.4-7-4.91-12.12-4.57-10.48,1.39,6.59,1.31,8.79,1.17,11.14-8.31,1.59-19.23,3.55-27.16,4.8-1.48-3.86-2.9-8.06-3-7.74-.76,2.41-.58,5.72-.25,8.24-2.52.38-4.55.64-5.79.73,0,0-1.07-3.26-1.32-4.36a23.24,23.24,0,0,1-.31-8.52,41.51,41.51,0,0,1,2.56-8.32s0,0,0-.06,0,0,0,0a24.27,24.27,0,0,0,1.37-5.51s0,0,0,0a24,24,0,0,0,.08-4.09c-.33-5,1.83-9.63,6.27-11.6,7.56-9.48,16.82-7.27,20.36-1.34.34.58.69,1.25,1,2v0c1.3,2.71,2.63,6.29,3.78,9v0s0,0,0,0h0a25,25,0,0,0,1.51,3.15C283.56,75.11,289,77.31,292,91.32Z"/><path class="cls-6" d="M252.07,59a9.41,9.41,0,0,0-4.3,8.26,24.07,24.07,0,0,1-.34,6.29,22,22,0,0,1-2.73,5.89,16.17,16.17,0,0,0-2.71,9.4,27.36,27.36,0,0,0,2.63,11s0,0,0,0a29,29,0,0,1-2.06-11.57c.1-4,2-6.77,3.79-10.06a16.48,16.48,0,0,0,2.19-8.43,19.73,19.73,0,0,1,.15-5.43,10.69,10.69,0,0,1,3.62-5A.21.21,0,0,0,252.07,59Z"/><path class="cls-6" d="M286.49,75.07c-2.54-2.48-5.11-4.54-6.86-7.83-1.6-3-2.73-6.23-4.34-9.22,0,0-.1,0-.08,0,2.6,5.34,3.75,10.94,8,15.13,2.33,2.27,4.63,4.36,6.37,7.24a27.77,27.77,0,0,1,3.48,9.83.09.09,0,1,0,.17,0A22.85,22.85,0,0,0,286.49,75.07Z"/><path class="cls-11" d="M271.55,100.08c13.16,7.12,35.12,14.4,47.47,14.36,5.32,0,25.88-9.53,36.13-16.54,3.83-2.62-13.63-22.63-18.1-20.25-3,1.62-18.4,14.44-21.06,14.94-4.91.93-26.64-2-40.39-1.92C267.93,90.72,263.37,95.65,271.55,100.08Z"/><path class="cls-5" d="M295.21,90.44l1.75,24.9s-25.15-11-31.64-16.32c-7.29-6-2.64-8.42,6.29-9.37S295.21,90.44,295.21,90.44Z"/><path class="cls-6" d="M290.77,91.63c-.21,3.2.53,12.89.63,14.49.06.85.43,4.21.48,5,0,.11.17.08.16,0-.09-1.61,0-3.23-.1-4.84s-.47-11.5-1.05-14.67C290.88,91.56,290.77,91.56,290.77,91.63Z"/><path class="cls-12" d="M297,115.34s-25.16-11-31.65-16.33c-3-2.44-3.95-4.28-3.49-5.68l34.08,7Z"/><path class="cls-5" d="M230.89,146.36l58,.95-4.54-17.38A18.19,18.19,0,0,0,287,114.78c-1.39-5.11-8-12.78-12.05-17.64-9.86-11.86-18.42-6.5-21.16-3.45C243.34,105.33,230.89,146.36,230.89,146.36Z"/><path class="cls-6" d="M268.85,128.91a51.62,51.62,0,0,1,7.46-.13c1.24.09,2.46.24,3.69.41q.92.12,1.83.21a7.87,7.87,0,0,0,1.94,0c.05,0,.07.08,0,.09a12.49,12.49,0,0,1-1.8.29,11.75,11.75,0,0,1-1.78,0c-1.25-.08-2.5-.21-3.75-.3-2.53-.18-5.06-.36-7.59-.36C268.74,129.12,268.73,128.92,268.85,128.91Z"/><path class="cls-6" d="M263.21,132.17a53.26,53.26,0,0,1,6-1.39c1-.17,2-.29,3.06-.37l1.47-.1c.54,0,1.08,0,1.62,0,.06,0,.07.08,0,.09-.5.05-1,.18-1.51.26l-1.52.23-3,.48c-2,.3-4.05.62-6.07,1C263.13,132.36,263.11,132.2,263.21,132.17Z"/><path class="cls-11" d="M258.82,93.58c.36,1,6.09,7.06,10.76,6.26,1.52-.26.45-8.62.45-8.62l.07-.64.86-8.89-11-5.27-1.58-.68s-.07,2.45-.14,5.5c0,.14,0,.28,0,.43s0,.34,0,.5c0,.46,0,.92,0,1.39s0,.69,0,1.06,0,.73,0,1.11A57.18,57.18,0,0,0,258.82,93.58Z"/><path class="cls-6" d="M258.27,81.24a17.9,17.9,0,0,0,11.83,9.34l.86-8.89-11-5.27-1.58-.68S258.34,78.19,258.27,81.24Z"/><path class="cls-11" d="M281.77,66.74c5,14.87-3.36,19.53-6.57,20.6-2.91,1-12.95,3.91-19.44-10.36s-1.16-21.29,5.39-23.86S276.78,51.87,281.77,66.74Z"/><path class="cls-6" d="M277.77,66.87c-.37,0-.71,0-1.08,0a1.75,1.75,0,0,1-1.11-.17.53.53,0,0,1-.17-.65,1.37,1.37,0,0,1,1.23-.66,2,2,0,0,1,1.42.38A.6.6,0,0,1,277.77,66.87Z"/><path class="cls-6" d="M267.07,69.27a8,8,0,0,0,1-.48,1.76,1.76,0,0,0,.9-.68.57.57,0,0,0-.17-.66,1.38,1.38,0,0,0-1.4,0,2,2,0,0,0-1.06,1A.59.59,0,0,0,267.07,69.27Z"/><path class="cls-6" d="M270.07,71.62s-.07.07-.06.11c.33,1,.53,2.24-.3,2.84,0,0,0,.07,0,.06C270.82,74.14,270.54,72.53,270.07,71.62Z"/><path class="cls-6" d="M268.84,70.8c-1.68.35-.87,3.7.69,3.38S270.26,70.52,268.84,70.8Z"/><path class="cls-6" d="M268.23,71.14c-.25.26-.45.66-.8.78s-.79-.13-1.14-.4c0,0-.05,0,0,0,.14.64.55,1.24,1.26,1.17s1-.74,1-1.43C268.48,71.19,268.33,71,268.23,71.14Z"/><path class="cls-6" d="M276.17,69.57s.09,0,.1.07c.21,1,.63,2.22,1.65,2.34,0,0,0,.06,0,.06C276.74,72.15,276.2,70.6,276.17,69.57Z"/><path class="cls-6" d="M276.84,68.27c1.64-.52,2.56,2.8,1,3.28S275.47,68.7,276.84,68.27Z"/><path class="cls-6" d="M277.59,68.3c.32.1.66.35,1,.28s.54-.51.68-.92c0,0,.05,0,.06,0,.19.63.17,1.34-.41,1.63s-1.08-.16-1.41-.75C277.43,68.46,277.47,68.25,277.59,68.3Z"/><path class="cls-6" d="M272.61,80.23c.3.2.62.49,1,.45a2.72,2.72,0,0,0,1.08-.49,0,0,0,0,1,.06,0,1.46,1.46,0,0,1-1.22.83,1.15,1.15,0,0,1-1-.77C272.49,80.24,272.57,80.21,272.61,80.23Z"/><path class="cls-6" d="M276,75.39s.6,1.49.79,2.22c0,.07-.15.15-.4.23h0a3.58,3.58,0,0,1-3.7-.43.08.08,0,0,1,.08-.13,5.42,5.42,0,0,0,3.4.1c0-.22-1.13-2.52-1-2.56a6.7,6.7,0,0,1,1.75,0c-1.18-3.15-2.85-6.07-4-9.22,0-.11.12-.19.18-.1a54.27,54.27,0,0,1,4.69,9.75C278,75.61,276.31,75.44,276,75.39Z"/><path class="cls-6" d="M276.24,77.58A4.25,4.25,0,0,1,275,79.39a1.92,1.92,0,0,1-1.1.43c-.89.05-1.15-.69-1.2-1.38a4.55,4.55,0,0,1,.05-1.1A5.55,5.55,0,0,0,276.24,77.58Z"/><path class="cls-13" d="M275,79.39a1.92,1.92,0,0,1-1.1.43c-.89.05-1.15-.69-1.2-1.38A2,2,0,0,1,275,79.39Z"/><path class="cls-6" d="M256,77.81A6.49,6.49,0,0,0,258.62,72a17,17,0,0,0,5.82-6.66c-.05.33-.39,2.77-.6,4C273.33,65.75,275,57.7,275,57.7a17,17,0,0,1,5.39,5.47s-1-6-4.81-9.53A9.86,9.86,0,0,0,266,51.22a14.11,14.11,0,0,0-12.83,6.58C248,65.88,256,77.81,256,77.81Z"/><path class="cls-6" d="M271,66.38a18.08,18.08,0,0,1-4.71,2.74s0,0,0,0a15.55,15.55,0,0,0,6.44-5.64,14.8,14.8,0,0,0,1.6-3.33,10.27,10.27,0,0,0,.64-4c0-.1.15-.11.16,0a12,12,0,0,1-.1,4,10.74,10.74,0,0,1-1.6,3.63,12.71,12.71,0,0,1-2.42,2.6"/><path class="cls-11" d="M258.51,75.92s-4.48-4-6.35-2.25,2.29,8,5.06,8.33a2.64,2.64,0,0,0,3.12-2.21Z"/><path class="cls-6" d="M253.4,75.45s0,.06,0,.07c1.95.29,3.29,1.71,4.35,3.26a1.46,1.46,0,0,0-2.22.13s0,.1.07.08a1.64,1.64,0,0,1,1.88.13,8,8,0,0,1,1.18,1.21c.12.14.38,0,.28-.18l0,0C258.41,77.83,255.89,75.09,253.4,75.45Z"/><path class="cls-7" d="M381,82.32l23.35,78.78a8.31,8.31,0,0,1-5.6,10.34l-125,37a8.32,8.32,0,0,1-10.34-5.61l-23.35-78.79a7.74,7.74,0,0,1,5.22-9.62L371.34,77.1A7.73,7.73,0,0,1,381,82.32Z"/><path class="cls-4" d="M381,82.32l23.35,78.78a8.31,8.31,0,0,1-5.6,10.34l-125,37a8.32,8.32,0,0,1-10.34-5.61l-23.35-78.79a7.74,7.74,0,0,1,5.22-9.62L371.34,77.1A7.73,7.73,0,0,1,381,82.32Z"/><rect class="cls-2" x="255.85" y="122.37" width="27.59" height="19.06" rx="4.2" transform="translate(-26.37 82.07) rotate(-16.51)"/><path class="cls-14" d="M263.1,161.91l-.9,1a.21.21,0,0,1-.12.08.29.29,0,0,1-.27-.06.26.26,0,0,1,0-.39l1.21-1.34a.29.29,0,0,1,.39,0,.37.37,0,0,1,.09.19l2.09,7a.27.27,0,0,1-.18.34.3.3,0,0,1-.35-.19Z"/><path class="cls-14" d="M267.41,167.62l2.63-4.3a2.08,2.08,0,0,0,.22-1.66,2,2,0,0,0-.91-1.16,2,2,0,0,0-1.64-.22,2.1,2.1,0,0,0-1.19.9l-.27.45a.28.28,0,0,1-.48-.27l.27-.46a2.61,2.61,0,0,1,1.51-1.15,2.54,2.54,0,0,1,2.08.27,2.59,2.59,0,0,1,1.16,1.48,2.68,2.68,0,0,1-.27,2.11l-2.25,3.68,3.63-1.07a.28.28,0,0,1,.34.19.29.29,0,0,1-.18.35L267.78,168l0,0a.28.28,0,0,1-.22,0A.3.3,0,0,1,267.41,167.62Z"/><path class="cls-14" d="M276.53,157.61l-1.38,2.62a2.66,2.66,0,0,1,1.52.32,2.71,2.71,0,1,1-2.59,4.77.27.27,0,0,1-.11-.38.28.28,0,0,1,.38-.12A2.15,2.15,0,0,0,276,165a2.13,2.13,0,0,0,1.46-2.66,2.09,2.09,0,0,0-1-1.27,2.13,2.13,0,0,0-1.63-.18.28.28,0,0,1-.25,0h0a.28.28,0,0,1-.12-.39l1.33-2.53-2.94.87a.29.29,0,1,1-.16-.55l3.58-1.06a.3.3,0,0,1,.36.19.28.28,0,0,1,0,.13A.2.2,0,0,1,276.53,157.61Z"/><path class="cls-14" d="M284.63,161.31l-4.15,1.23h0a.23.23,0,0,1-.18,0,.28.28,0,0,1-.15-.37l2.8-6.84h0a.26.26,0,0,1,.37-.14.23.23,0,0,1,.12.1l0,0v0l1.55,5.27.52-.16a.28.28,0,1,1,.16.53l-.52.15.39,1.32a.27.27,0,0,1-.2.34.28.28,0,0,1-.34-.18Zm-.15-.53-1.33-4.49-2.3,5.57Z"/><path class="cls-14" d="M294.49,159.28a.27.27,0,0,1-.11-.38.29.29,0,0,1,.39-.12,2.15,2.15,0,0,0,1.62.17,2.15,2.15,0,0,0,.42-3.94,2.14,2.14,0,0,0-2.9.87.27.27,0,0,1-.38.11.16.16,0,0,1-.09-.07h0l0,0a.2.2,0,0,1,0-.08s0,0,0-.06l-.54-3.2a.21.21,0,0,1,.05-.23.26.26,0,0,1,.15-.12l3.58-1.06a.28.28,0,0,1,.35.2.27.27,0,0,1-.19.35l-3.34,1,.4,2.36a2.66,2.66,0,0,1,1.2-.73,2.68,2.68,0,0,1,3.35,1.83,2.63,2.63,0,0,1-.21,2.06,2.75,2.75,0,0,1-1.61,1.3A2.69,2.69,0,0,1,294.49,159.28Z"/><path class="cls-14" d="M300.24,151.88a3.25,3.25,0,0,1,2.2-2.46.26.26,0,0,1,.34.17.29.29,0,0,1-.17.36,2.72,2.72,0,0,0-1.83,2.06,5.25,5.25,0,0,0-.09,1.69,2.63,2.63,0,1,1-.12,1.94,3.53,3.53,0,0,1-.17-.49A6.71,6.71,0,0,1,300.24,151.88Zm.86,3.56a.45.45,0,0,0,.06.14.11.11,0,0,1,0,.08,2.12,2.12,0,1,0-.09-.26Z"/><path class="cls-14" d="M309.05,155.38l.85-7.57-3.71,1.1a.28.28,0,0,1-.34-.18.27.27,0,0,1,.19-.34l4-1.21a.47.47,0,0,1,.17,0,.33.33,0,0,1,.19.13.35.35,0,0,1,.05.08.19.19,0,0,1,0,.15l-.88,7.94a.3.3,0,0,1-.19.24.25.25,0,0,1-.12,0A.31.31,0,0,1,309.05,155.38Z"/><path class="cls-14" d="M314.47,145.84a1.67,1.67,0,0,1,2.07,1.11,1.69,1.69,0,0,1-.27,1.49,2.59,2.59,0,1,1-1.9.56,1.68,1.68,0,0,1-1-1.1A1.65,1.65,0,0,1,314.47,145.84Zm2.12,7.14a2,2,0,1,0-1.17-3.92,2,2,0,1,0,1.17,3.92Zm-1.33-4.47a1.14,1.14,0,0,0,.76-1.4,1.12,1.12,0,0,0-1.39-.75,1.1,1.1,0,0,0-.75,1.38A1.12,1.12,0,0,0,315.26,148.51Z"/><path class="cls-14" d="M328.11,141.8a2.63,2.63,0,0,1,3.18,1.48l0,.05c.07.21.15.42.22.65a6.74,6.74,0,0,1,.17,3.28,3.34,3.34,0,0,1-2.19,2.46h0a.25.25,0,0,1-.34-.17.28.28,0,0,1,.17-.36,2.73,2.73,0,0,0,1.83-2.05,5.35,5.35,0,0,0,.09-1.7,2.64,2.64,0,1,1-3.15-3.64Zm2.75,1.92a2.09,2.09,0,1,0-1.42,2.59A2.08,2.08,0,0,0,330.86,143.72Z"/><path class="cls-14" d="M333.73,144.3a5.14,5.14,0,0,1-.06-2.9,2.27,2.27,0,0,1,3.84-1.14,5.29,5.29,0,0,1,1.54,2.47,5.18,5.18,0,0,1,.05,2.89,2.26,2.26,0,0,1-3.84,1.14A5.07,5.07,0,0,1,333.73,144.3Zm.54-.16a4.59,4.59,0,0,0,1.35,2.19,1.71,1.71,0,0,0,2.94-.87,4.84,4.84,0,0,0-1.41-4.76,1.71,1.71,0,0,0-2.94.87A4.53,4.53,0,0,0,334.27,144.14Z"/><path class="cls-14" d="M341.69,138.62l-.9.95a.23.23,0,0,1-.12.09.27.27,0,0,1-.27-.07.26.26,0,0,1,0-.39l1.21-1.34a.29.29,0,0,1,.39,0,.34.34,0,0,1,.09.18l2.09,7.05a.27.27,0,0,1-.19.34.28.28,0,0,1-.34-.18Z"/><path class="cls-14" d="M346,144.33l2.63-4.3a2.08,2.08,0,0,0,.22-1.66,2.07,2.07,0,0,0-3.74-.48l-.28.45a.26.26,0,0,1-.37.1.27.27,0,0,1-.1-.38l.27-.46a2.65,2.65,0,0,1,1.51-1.15,2.54,2.54,0,0,1,2.08.28,2.59,2.59,0,0,1,1.16,1.48,2.68,2.68,0,0,1-.27,2.11L346.86,144l3.63-1.08a.29.29,0,0,1,.34.2.28.28,0,0,1-.18.34l-4.28,1.27h0a.24.24,0,0,1-.22,0A.29.29,0,0,1,346,144.33Z"/><path class="cls-14" d="M361.69,132.37,360.31,135a2.69,2.69,0,0,1,2.83,1.93,2.69,2.69,0,0,1-.22,2.07,2.76,2.76,0,0,1-1.62,1.31,2.67,2.67,0,0,1-2.06-.22.28.28,0,0,1,.27-.5,2.12,2.12,0,0,0,1.63.16,2.12,2.12,0,0,0,1.45-2.66,2.1,2.1,0,0,0-1-1.26,2.13,2.13,0,0,0-1.63-.18.28.28,0,0,1-.25,0h0a.29.29,0,0,1-.12-.39l1.33-2.53-2.94.87a.28.28,0,0,1-.35-.19.28.28,0,0,1,.19-.36l3.58-1.06a.27.27,0,0,1,.36.32A.2.2,0,0,1,361.69,132.37Z"/><path class="cls-14" d="M369.79,136.07l-4.15,1.23h0a.22.22,0,0,1-.18,0,.26.26,0,0,1-.15-.36l2.81-6.84h0a.28.28,0,0,1,.37-.15.32.32,0,0,1,.12.11l0,0v0l1.56,5.26.51-.15a.28.28,0,1,1,.16.53l-.52.15.39,1.32a.28.28,0,0,1-.19.34.29.29,0,0,1-.35-.19Zm-.15-.53-1.33-4.49-2.3,5.57Z"/><path class="cls-14" d="M373.08,136a.29.29,0,0,1,.28-.5,2.14,2.14,0,0,0,1.62.16,2.05,2.05,0,0,0,1.27-1,2.13,2.13,0,0,0,.18-1.63,2.18,2.18,0,0,0-1-1.28,2.09,2.09,0,0,0-1.62-.16,2.14,2.14,0,0,0-1.28,1,.27.27,0,0,1-.38.12.22.22,0,0,1-.09-.07h0l0,0a.19.19,0,0,1,0-.09s0,0,0-.05l-.54-3.2a.21.21,0,0,1,.05-.23.26.26,0,0,1,.15-.12l3.58-1.06a.27.27,0,0,1,.35.19.28.28,0,0,1-.19.36l-3.34,1,.4,2.36a2.67,2.67,0,0,1,1.2-.74,2.72,2.72,0,0,1,3.14,3.9,2.82,2.82,0,0,1-1.61,1.3A2.73,2.73,0,0,1,373.08,136Z"/><path class="cls-14" d="M378.83,128.58a3.26,3.26,0,0,1,2.2-2.46.27.27,0,0,1,.34.17.3.3,0,0,1-.17.37,2.71,2.71,0,0,0-1.83,2.05,5.33,5.33,0,0,0-.09,1.7,2.61,2.61,0,0,1,1.64-1.43,2.64,2.64,0,1,1-1.76,3.37,3.67,3.67,0,0,1-.17-.5A6.7,6.7,0,0,1,378.83,128.58Zm.86,3.57a.52.52,0,0,0,.06.13s0,.06,0,.08a2.12,2.12,0,1,0-.09-.26Z"/><rect class="cls-9" x="269.06" y="171.69" width="69.79" height="3.43" transform="matrix(0.96, -0.28, 0.28, 0.96, -36.75, 93.53)"/><rect class="cls-9" x="271.65" y="181.89" width="49.41" height="3.43" transform="translate(-39.96 91.79) rotate(-16.51)"/><rect class="cls-9" x="311.3" y="104.53" width="34.81" height="3.43" transform="translate(-16.64 97.79) rotate(-16.51)"/><path class="cls-9" d="M373.45,106.55l-.81-.45-.46-.25a8.89,8.89,0,0,0-3.56-12.1l.26-.44c.14-.27.29-.54.44-.81v0h0l.05,0c.31.2.63.38.93.59A9.38,9.38,0,0,1,372,94.59a9.89,9.89,0,0,1,1.54,2.2c.19.38.35.77.52,1.16.05.14.32,1,.33,1.06.06.29.13.57.18.85a10.07,10.07,0,0,1,.12,2.39,11.16,11.16,0,0,1-.26,1.72,10.48,10.48,0,0,1-.59,1.74c-.13.28-.27.56-.4.83Z"/><path class="cls-9" d="M367.24,96.32l.69-1.28a7.42,7.42,0,0,1,3,10.1l-1.28-.7a6,6,0,0,0-2.39-8.12Z"/><path class="cls-9" d="M368.34,103.74l-1.27-.7a3.06,3.06,0,0,0-1.23-4.16c.23-.43.46-.85.7-1.27A4.49,4.49,0,0,1,368.34,103.74Z"/><path class="cls-11" d="M249.9,109.38c-2.14,16.2-7.59,49.69-.65,59.62,9.1,13,38.91,21.47,46.72,24,3.41,1.1,12.07-21.1,10.15-24.41s-34.48-16.29-36.6-18.21-4.61-27.66-7.55-41.21C258.25,92.07,251.72,95.67,249.9,109.38Z"/><path class="cls-11" d="M315.49,176.3c-1.24-1.34-.54-2,2.66-1.48s15.43,5.32,16.74.91-16-10.92-21.43-11.38-14.3.68-14.3.68C302.28,167,309.41,172.41,315.49,176.3Z"/><path class="cls-11" d="M287.45,189.45c9,5.16,19.88,12.12,31.58,12a5.73,5.73,0,0,0,3.6-1.19c5.25,0,6.84-2.43,6.84-2.43,4.89-1.47,6.17-4.22,6.17-4.22s6.15,0,6.75-3.75c.69-4.17-8.09-3.31-13.21-5.8-11.72-5.68-26.8-17-30-19Z"/><path class="cls-6" d="M312.71,186.72a83.24,83.24,0,0,0,10.55,4.4,84.09,84.09,0,0,0,12.29,2.36.1.1,0,0,1,0,.2,44.22,44.22,0,0,1-22.9-6.8C312.48,186.78,312.53,186.64,312.71,186.72Z"/><path class="cls-6" d="M308.25,193.3c3.48,1.37,9.6,3.75,21.22,4.38,0,0,0,.07,0,.07a39.85,39.85,0,0,1-21.3-4.28C308,193.36,308,193.21,308.25,193.3Z"/><path class="cls-6" d="M305.92,196.88c6,2.11,10.05,2.68,16.69,3.33,0,0,0,.07,0,.07-7.62.05-10.4-.79-16.79-3.2C305.6,197,305.68,196.8,305.92,196.88Z"/><path class="cls-5" d="M267.66,127.93l-23.55,8.29s3.94-27.17,7.35-34.83c3.84-8.63,7.41-4.78,10.7,3.57S267.66,127.93,267.66,127.93Z"/><path class="cls-6" d="M265.33,124c-3.14.65-12.29,3.93-13.8,4.46-.81.27-3.95,1.52-4.75,1.79-.1,0,0,.19.07.16,1.53-.52,3.12-.88,4.65-1.39s11-3.5,13.87-4.9A.06.06,0,0,0,265.33,124Z"/><path class="cls-6" d="M266.08,117.33c-.11-1.31-.23-2.63-.38-3.94,0,0-.05,0-.05,0,.05,1,.12,1.93.19,2.9-.45-1.88-.94-3.75-1.5-5.59,0,0-.06,0,0,0,.44,2.89,1,5.76,1.56,8.64s1.06,5.65,1.61,8.47l-1.53.79a.08.08,0,0,0,.06.15c.61-.18,1.21-.36,1.82-.51a.3.3,0,0,0,.24-.32C267.53,124.4,266.89,120.84,266.08,117.33Z"/><path class="cls-11" d="M334.86,80c3.53-3.1,7.2-9.41,10.42-10.76a4,4,0,0,1,4.67,1s.71-3.79,3.83-4.53c1.6-.39,3.62,1.84,3.62,1.84s.7-3,3.52-3.5c2.24-.39,3.93,1.9,3.93,1.9s2-2.58,4.43-2.24c4.89.68,10.24,19.47,4.15,24.34-2.84,2.28-3.9-2.39-3.9-2.39s-.1,7.07-3.94,8.28S360.73,89,360.73,89s-.15,6.85-4.27,7.69c-4.28.88-4.23-5.43-4.23-5.43s-1.65,5-4.94,4.91c-5.45-.12-1.41-9.83-3.56-13.68l-7.46-.34Z"/><path class="cls-11" d="M339.71,74.52c-3.59,2.64-10-.92-13.77,1.11-5.14,2.74,2,7.38,10.33,6.48l6.35-1.83Z"/><path class="cls-6" d="M365.17,66.24a.05.05,0,1,1,.09,0,34,34,0,0,1,4.36,19.68c0,.22-.39.28-.41,0A69.59,69.59,0,0,0,365.17,66.24Z"/><path class="cls-6" d="M357.41,67.41c0-.07.1-.12.14,0,3.33,5.94,5.16,14.24,3.41,21.76-.06.26-.37.43-.32.13C361.42,84.17,359.65,73.32,357.41,67.41Z"/><path class="cls-6" d="M351.93,91.73c1.39-7.28.31-14.27-1.83-21.29,0-.09.1-.12.14,0,2,3.15,2.89,7.76,3.28,11.42a19.52,19.52,0,0,1-1.34,10C352.13,91.9,351.9,91.88,351.93,91.73Z"/><polygon class="cls-5" points="22.71 400.02 109.86 400.02 97.14 312.84 35.42 312.84 22.71 400.02"/><polygon class="cls-15" points="35.42 312.84 45.1 400.03 22.71 400.03 35.42 312.84"/><path class="cls-16" d="M79.31,319c0-.08-1.59-7.38-3.28-14.76-1.4-6.16-7.63-9-12.82-8.15-1.84.29-7.77,1.82-7,9.35.89,8.66,1.57,12.85,1.58,12.89l-3.67.58c0-.17-.7-4.32-1.6-13.1-.71-7,3.25-12.23,10.11-13.32s15.15,2.7,17,11c1.69,7.39,3.27,14.72,3.29,14.79Z"/><path class="cls-9" d="M43.92,399.36c-2-.9-3.93-1.9-5.87-2.91s-3.84-2.07-5.73-3.15l.5,0c-1.49,1.06-3,2.12-4.52,3.12s-3.06,2-4.65,3c1.38-1.21,2.81-2.36,4.25-3.49s2.9-2.23,4.38-3.31l.23-.18.26.15q2.86,1.59,5.65,3.29C40.28,397,42.13,398.11,43.92,399.36Z"/><path class="cls-9" d="M32.55,392.91c0-5.57.1-11.14.22-16.71s.32-11.13.47-16.7.42-11.13.68-16.69l.42-8.35c.18-2.78.32-5.56.52-8.34,0,2.79,0,5.57-.06,8.36l-.16,8.35c-.12,5.57-.32,11.13-.47,16.7s-.42,11.13-.69,16.69S32.93,387.35,32.55,392.91Z"/><path class="cls-6" d="M77.42,318.57a3.7,3.7,0,1,0,3.7-3.63A3.66,3.66,0,0,0,77.42,318.57Z"/><ellipse class="cls-6" cx="56.23" cy="318.57" rx="3.7" ry="3.63"/></g></g></svg>