<svg xmlns="http://www.w3.org/2000/svg" viewBox="0 0 520.34 512"><g id="Layer_2" data-name="Layer 2"><g id="Layer_1-2" data-name="Layer 1"><path d="M249.75,377.75a21.29,21.29,0,0,1,0,30.16L158.17,499.5a42.7,42.7,0,0,1-60.33,0L6.26,407.91a21.33,21.33,0,0,1,30.16-30.16L106.67,448V21.33a21.34,21.34,0,0,1,42.67,0V448l70.25-70.25a21.31,21.31,0,0,1,30.16,0Z"/><path d="M514.09,104.09,422.5,12.5a42.73,42.73,0,0,0-60.33,0l-91.58,91.59a21.33,21.33,0,1,0,30.16,30.16L371,64V490.67a21.33,21.33,0,0,0,42.66,0V64l70.25,70.25a21.33,21.33,0,0,0,30.17-30.16Z"/></g></g></svg>